<svg width="487" height="265" viewBox="0 0 487 265" fill="none" xmlns="http://www.w3.org/2000/svg">
<g clip-path="url(#clip0)">
<path d="M109.607 263.526C133.173 265.387 157.736 263.132 182.059 262.792C244.397 261.929 306.804 260.754 369.094 264.015C394.114 265.319 420.744 264.09 442.536 250.379C466.314 235.433 479.827 207.944 484.243 180.299C488.863 151.411 488.338 115.355 477.602 88.0231C439.704 -8.55364 312.373 -0.421231 237.033 41.7967C221.186 50.6833 204.759 59.9707 186.68 63.3473C167.857 66.8666 153.354 57.9121 136.476 51.023C112.876 41.4298 85.5289 40.7232 61.8945 50.2213C-14.5369 80.9234 -18.1745 187.236 39.9049 236.941C61.0687 255.054 84.785 261.569 109.607 263.526Z" fill="#D3FFF7"/>
<path d="M302.252 132.585L303.651 124.663L283.62 92.8604C282.966 92.0582 282.478 91.1344 282.187 90.1428L271.792 55.4934L261.787 55.4391L267.643 94.2668C268.318 98.9003 269.723 103.399 271.806 107.597L296.15 149.223L302.252 132.585Z" fill="#F3B2A7"/>
<path d="M273.724 61.4178C273.724 61.4178 271.622 56.662 271.253 52.6467C270.885 48.6314 271.533 47.6259 271.253 44.2153C270.973 40.8048 271.663 35.4918 271.124 35.4239C270.584 35.356 268.605 35.2812 268.319 37.7542C268.032 40.2273 267.527 42.775 267.527 42.775L262.545 32.584C262.545 32.584 260.62 28.5688 259.132 29.4724C257.645 30.376 262.442 38.0396 261.862 38.4744C261.023 39.0927 257.986 34.4863 257.986 34.4863C257.986 34.4863 254.908 29.4044 253.372 30.2808C251.837 31.1573 257.993 39.2829 257.993 39.2829C257.993 39.2829 258.723 40.8048 257.631 40.5534C256.539 40.302 252.171 33.4808 250.608 33.9904C249.045 34.4999 253.468 39.874 253.468 39.874C253.468 39.874 256.396 42.5916 255.078 43.1419C253.761 43.6922 249.38 38.8617 248.506 39.7449C247.632 40.6281 251.291 44.1338 252.826 45.2752C254.604 46.6431 256.074 48.3675 257.139 50.3367C258.095 52.2187 259.426 54.6985 261.753 55.2692L263.876 62.0632L273.724 61.4178Z" fill="#F3B2A7"/>
<g style="mix-blend-mode:multiply" opacity="0.24">
<path d="M267.281 43.1079C267.281 43.1079 265.363 48.1423 265.916 50.2416L264.23 47.1504C264.23 47.1504 266.448 44.3512 267.281 43.1079Z" fill="#F3B2A7"/>
</g>
<path d="M329.599 135.554C329.599 135.554 323.545 117.842 313.342 117.428C301.365 116.945 285.838 92.8604 285.838 92.8604L274.768 55.541L259.337 59.1214C259.337 59.1214 262.647 94.5385 266.442 105.137C271.738 119.901 299.078 154.285 299.078 154.285L329.599 135.554Z" fill="#FFF9E2"/>
<path d="M329.046 77.635L329.599 68.6262C329.599 68.6262 314.85 68.3069 310.305 82.8936C305.678 97.7317 308.94 117.176 308.94 117.176L321.907 121.253L322.221 81.1272L329.046 77.635Z" fill="#221E1F"/>
<path d="M327.49 77.635L329.032 68.6262C329.032 68.6262 342 69.5706 345.467 82.1055C349.562 96.9368 348.244 117.57 348.244 117.57L336.096 121.205L334.253 81.0796L327.49 77.635Z" fill="#221E1F"/>
<g style="mix-blend-mode:multiply">
<path d="M325.968 97.2561L343.692 92.9216L345.255 123.97L312.871 121.205L313.929 91.4473L325.968 97.2561Z" fill="#221E1F"/>
</g>
<path d="M353.322 134.739L351.923 126.817L371.353 102.854C372.036 102.053 373.1 93.2884 373.401 92.3033L383.795 57.6539L393.8 57.5995L387.944 96.4272C387.268 101.063 385.863 105.563 383.781 109.764L359.437 151.384L353.322 134.739Z" fill="#F3B2A7"/>
<path d="M381.843 63.5715C381.843 63.5715 383.938 58.8157 384.313 54.8004C384.689 50.7852 384.034 49.7864 384.313 46.3691C384.593 42.9517 383.897 37.6456 384.443 37.5776C384.989 37.5097 386.955 37.4349 387.241 39.908C387.528 42.381 388.04 44.9287 388.04 44.9287L393.022 34.7377C393.022 34.7377 394.947 30.7225 396.434 31.6261C397.922 32.5297 393.124 40.1933 393.704 40.6281C394.544 41.2464 397.581 36.64 397.581 36.64C397.581 36.64 400.659 31.5581 402.188 32.4346C403.717 33.311 397.574 41.4366 397.574 41.4366C397.574 41.4366 396.837 42.9585 397.936 42.7071C399.035 42.4557 403.396 35.6345 404.952 36.1441C406.508 36.6536 402.099 42.0277 402.099 42.0277C402.099 42.0277 399.171 44.7453 400.482 45.2956C401.792 45.8459 406.187 41.0154 407.061 41.8986C407.934 42.7818 404.276 46.2875 402.741 47.4289C400.963 48.7968 399.493 50.5212 398.427 52.4904C397.472 54.3792 396.141 56.8522 393.807 57.4297L391.684 64.2237L381.843 63.5715Z" fill="#F3B2A7"/>
<g style="mix-blend-mode:multiply" opacity="0.24">
<path d="M388.286 45.2616C388.286 45.2616 390.203 50.296 389.651 52.3953L391.336 49.3041C391.336 49.3041 389.118 46.5117 388.286 45.2616Z" fill="#F3B2A7"/>
</g>
<path d="M325.961 137.708C325.961 137.708 338.887 117.944 349.097 117.529C361.068 117.047 370.493 99.5729 370.493 99.5729L380.799 57.6607L396.23 61.2411C396.23 61.2411 392.92 96.6582 389.118 107.257C383.829 122.02 355.677 157.166 355.677 157.166L325.961 137.708Z" fill="#FFF9E2"/>
<path d="M319.123 97.426V115.885C319.123 115.885 327.626 118.786 332.588 118.27C337.55 117.754 337.932 114.662 337.932 114.662L337.092 97.426H319.123Z" fill="#F3B2A7"/>
<g style="mix-blend-mode:multiply" opacity="0.64">
<path d="M322.119 102.345L319.669 106.571C319.669 106.571 326.494 115.179 337.932 114.662L337.366 99.138L322.119 102.345Z" fill="#F3B2A7"/>
</g>
<path d="M308.094 116.191C299.576 115.403 294.444 174.619 303.903 205.417C303.903 205.417 317.997 205.471 319.478 205.043C320.959 204.615 324.357 208.005 331.503 205.233C331.503 205.233 348.729 211.592 349.93 207.142C361.164 166.507 353.752 117.373 353.752 117.373C353.752 117.373 329.599 118.175 308.094 116.191Z" fill="#FFF9E2"/>
<g style="mix-blend-mode:multiply">
<g style="mix-blend-mode:multiply">
<path d="M318.44 112.611C318.44 112.611 322.992 116.116 328.254 116.449C328.254 116.449 327.224 124.188 321.115 123.997C315.007 123.807 311.813 116.932 311.813 116.932L318.44 112.611Z" fill="#F9E4B9"/>
</g>
<g style="mix-blend-mode:multiply">
<path d="M338.068 112.611C338.068 112.611 333.523 116.116 328.254 116.449C328.254 116.449 329.292 123.427 335.393 123.243C341.494 123.06 344.695 117.699 344.695 117.699L338.068 112.611Z" fill="#F9E4B9"/>
</g>
</g>
<path d="M379.297 264.857C379.168 264.47 379.045 265.238 378.915 264.857C373.68 248.98 369.811 221.974 362.686 207.258C355.56 192.542 345.999 191.224 345.999 191.224L319.996 195.749L306.811 192.725L304.599 190.47C304.599 190.47 296.41 195.022 288.506 209.344C280.603 223.665 276.126 249.279 270.079 264.857C269.888 265.36 269.684 264.348 269.486 264.857H379.297Z" fill="#006E58"/>
<g style="mix-blend-mode:multiply" opacity="0.65">
<path d="M378.915 264.857C373.68 248.98 369.811 221.974 362.685 207.258C355.56 192.542 345.999 191.224 345.999 191.224L341.904 191.937C345.416 195.263 348.238 199.242 350.21 203.65C350.141 203.908 338.771 244.346 342.102 239.774C345.432 235.202 350.585 222.741 350.687 233.333C350.79 243.925 330.943 266.712 336.478 264.851C342.013 262.989 349.322 256.093 349.104 258.369C348.886 260.645 344.695 264.851 344.695 264.851H379.297C379.167 264.47 379.045 265.238 378.915 264.857Z" fill="#006E58"/>
</g>
<path d="M318.44 111.822C318.44 111.822 322.992 115.321 328.254 115.654C328.254 115.654 327.224 123.393 321.115 123.202C315.007 123.012 311.813 116.137 311.813 116.137L318.44 111.822Z" fill="#024386"/>
<path d="M338.068 111.822C338.068 111.822 333.53 115.328 328.254 115.654C328.254 115.654 329.292 122.632 335.393 122.448C341.494 122.265 344.695 116.904 344.695 116.904L338.068 111.822Z" fill="#024386"/>
<path d="M313.786 87.2418C314.216 78.6202 318.672 71.072 328.882 71.4389C344.579 72.0028 344.921 98.0578 336.915 106.435C332.056 111.51 323.572 111.245 319.669 106.571C315.765 101.896 313.438 94.1784 313.786 87.2418Z" fill="#F3B2A7"/>
<g style="mix-blend-mode:multiply" opacity="0.24">
<path d="M341.037 84.8231C340.164 81.494 339.365 78.2533 337.522 75.7803L329.612 79.9994C329.612 79.9994 328.527 86.739 328.964 90.0817C329.954 97.5143 332.731 97.1474 330.541 99.3759C328.773 101.176 331.988 105.49 330.274 110.083C333.045 109.567 337.447 106.408 338.696 104.037C341.897 97.9355 343.003 92.2897 341.037 84.8231Z" fill="#F3B2A7"/>
</g>
<path d="M334.444 72.6007C334.444 72.6007 336.69 67.8449 325.033 70.6644C313.376 73.4839 312.871 87.3641 312.871 87.3641L336.219 87.2078L337.284 78.8648L338.307 87.2553L340.519 87.2961C342.02 75.3794 334.444 72.6007 334.444 72.6007Z" fill="#221E1F"/>
<path d="M316.7 88.288C316.7 88.288 314.946 84.1301 312.421 87.0379C309.896 89.9458 313.144 98.1733 317.84 94.4774" fill="#F3B2A7"/>
<path d="M340.089 88.288C340.089 88.288 341.849 84.1301 344.375 87.0379C346.9 89.9458 343.651 98.1733 338.956 94.4774" fill="#F3B2A7"/>
<g style="mix-blend-mode:multiply" opacity="0.24">
<path d="M340.089 88.288C340.089 88.288 341.849 84.1301 344.375 87.0379C346.9 89.9458 343.651 98.1733 338.956 94.4774" fill="#F3B2A7"/>
</g>
<path d="M298.669 184.45C298.669 184.45 330.493 190.911 354.926 184.45V195.321C354.926 195.321 335.707 204.785 298.669 195.321V184.45Z" fill="#006E58"/>
<g style="mix-blend-mode:multiply">
<path d="M286.029 102.345C284.418 104.084 285.838 92.8332 285.838 92.8332L288.657 96.502C288.657 96.502 287.503 100.755 286.029 102.345Z" fill="#F9E4B9"/>
</g>
<path d="M370.575 107.943C371.421 106.652 370.493 99.1924 370.493 99.1924L367.879 103.439C367.879 103.439 369.702 109.214 370.575 107.943Z" fill="#F9E4B9"/>
<g style="mix-blend-mode:multiply">
<path d="M275.648 121.952L299.842 143.917L298.464 153.796L275.648 121.952Z" fill="#F9E4B9"/>
</g>
<g style="mix-blend-mode:multiply">
<path d="M378.99 126.586L356.4 146.2L355.485 157.071L378.99 126.586Z" fill="#F9E4B9"/>
</g>
<g style="mix-blend-mode:multiply">
<g style="mix-blend-mode:multiply">
<path d="M332.301 138.557C332.826 140.045 331.796 141.764 330.001 142.389C328.206 143.014 326.322 142.321 325.797 140.826C325.271 139.331 326.302 137.619 328.097 136.994C329.892 136.369 331.775 137.069 332.301 138.557Z" fill="#F9E4B9"/>
</g>
<g style="mix-blend-mode:multiply">
<path d="M332.329 153.212C331.83 154.713 329.967 155.454 328.159 154.869C326.35 154.285 325.279 152.586 325.77 151.085C326.261 149.583 328.131 148.843 329.94 149.427C331.748 150.012 332.847 151.71 332.329 153.212Z" fill="#F9E4B9"/>
</g>
<g style="mix-blend-mode:multiply">
<path d="M332.124 163.056C332.841 164.469 332.042 166.304 330.343 167.132C328.643 167.961 326.685 167.54 325.968 166.127C325.251 164.714 326.05 162.879 327.749 162.05C329.449 161.222 331.407 161.65 332.124 163.056Z" fill="#F9E4B9"/>
</g>
<g style="mix-blend-mode:multiply">
<path d="M332.329 178.132C331.83 179.633 329.967 180.374 328.159 179.783C326.35 179.192 325.279 177.5 325.77 175.999C326.261 174.497 328.131 173.757 329.94 174.348C331.748 174.939 332.847 176.63 332.329 178.132Z" fill="#F9E4B9"/>
</g>
</g>
<path d="M331.537 137.796C332.063 139.284 331.032 141.003 329.237 141.628C327.442 142.253 325.559 141.56 325.033 140.065C324.508 138.57 325.538 136.858 327.333 136.233C329.128 135.608 331.012 136.301 331.537 137.796Z" fill="#024386"/>
<path d="M331.564 152.451C331.073 153.952 329.203 154.693 327.394 154.108C325.586 153.524 324.514 151.826 325.006 150.324C325.497 148.823 327.367 148.082 329.176 148.673C330.984 149.264 332.056 150.949 331.564 152.451Z" fill="#024386"/>
<path d="M331.36 162.302C332.076 163.708 331.278 165.543 329.578 166.378C327.879 167.214 325.92 166.786 325.21 165.373C324.501 163.96 325.292 162.125 326.992 161.296C328.691 160.468 330.643 160.889 331.36 162.302Z" fill="#024386"/>
<path d="M331.564 177.371C331.073 178.872 329.203 179.613 327.394 179.022C325.586 178.431 324.514 176.739 325.006 175.238C325.497 173.736 327.367 172.996 329.176 173.587C330.984 174.178 332.056 175.87 331.564 177.371Z" fill="#024386"/>
<g style="mix-blend-mode:multiply" opacity="0.65">
<path d="M298.669 184.45C298.669 184.45 330.493 190.911 354.926 184.45V195.321C354.926 195.321 335.707 204.785 298.669 195.321V184.45Z" fill="#006E58"/>
</g>
<path d="M112.917 43.006C112.917 43.006 113.6 36.9933 115.545 32.7675C117.49 28.5416 118.745 27.8962 120.431 24.2954C122.117 20.6945 125.891 15.7825 125.413 15.3952C124.936 15.008 122.97 13.8054 121.277 16.1358C119.585 18.4661 117.565 20.7149 117.565 20.7149L118.479 7.63646C118.479 7.63646 118.882 2.4866 116.841 2.52057C114.801 2.55454 115.135 13.0241 114.296 13.1192C113.095 13.2551 112.726 6.87553 112.726 6.87553C112.726 6.87553 112.596 0 110.549 0C108.501 0 109.941 11.6993 109.941 11.6993C109.941 11.6993 109.791 13.6492 108.843 12.7659C107.894 11.8827 107.444 2.50019 105.58 2.12652C103.717 1.75285 105.028 9.68145 105.028 9.68145C105.028 9.68145 106.393 14.1315 104.748 13.8869C103.103 13.6424 101.513 6.31163 100.127 6.6853C98.7419 7.05897 100.366 12.6912 101.24 14.7226C102.222 17.1249 102.687 19.7056 102.605 22.2979C102.461 24.737 102.359 27.9913 104.366 29.914L102.53 37.9785L112.917 43.006Z" fill="#F3B2A7"/>
<g style="mix-blend-mode:multiply" opacity="0.24">
<path d="M117.107 20.8916C117.107 20.8916 112.255 24.8389 111.593 27.2711L111.695 23.1947C111.695 23.1947 115.545 21.6797 117.107 20.8916Z" fill="#F3B2A7"/>
</g>
<path d="M132.354 202.346L126.28 205.546C126.28 205.546 122.704 239.951 127.706 264.857H156.132L160.227 232.056L165.229 264.857H195.259C195.259 264.857 202.766 219.779 188.468 196.299C174.17 172.819 132.354 202.346 132.354 202.346Z" fill="#024386"/>
<g style="mix-blend-mode:multiply" opacity="0.55">
<path d="M189.737 207.727C189.737 207.727 187.233 206.008 179.855 205.478L180.804 208.392C182.455 213.558 183.275 218.951 183.233 224.372C183.233 226.791 183.39 229.209 183.916 230.568C185.315 233.965 187.854 242.118 187.854 242.118L196.63 233.673L195.887 214.521L189.737 207.727Z" fill="#024386"/>
</g>
<path d="M117.435 33.0528L118.889 84.9318C118.889 84.9318 127.597 100.137 136.872 104.295C146.147 108.453 129.583 159.326 122.444 151.316C116.043 144.128 101.915 111.075 96.8513 98.4383C95.2617 94.459 94.66 90.1567 95.0973 85.8965L101.417 31.762L117.435 33.0528Z" fill="#FFF9E2"/>
<path d="M199.081 216.559L199.9 229.651C199.977 230.936 199.658 232.214 198.985 233.313L195.136 239.55C194.677 240.299 194.042 240.926 193.286 241.377C191.927 242.229 190.506 242.978 189.034 243.619C188.195 243.918 187.949 243.042 187.915 242.111C187.896 241.581 187.998 241.054 188.211 240.568C188.425 240.082 188.746 239.65 189.15 239.305L191.041 237.661C191.359 237.389 191.575 237.018 191.655 236.608L193.061 229.569C193.097 229.392 193.079 229.209 193.01 229.042C192.941 228.875 192.823 228.732 192.672 228.632L191.785 228.047C191.657 227.964 191.509 227.914 191.357 227.901C191.204 227.889 191.051 227.914 190.91 227.976C190.77 228.037 190.647 228.132 190.553 228.253C190.459 228.373 190.397 228.515 190.372 228.666L189.485 234.339C189.454 234.533 189.368 234.714 189.238 234.861C189.107 235.009 188.938 235.116 188.749 235.172C188.559 235.227 188.358 235.228 188.168 235.175C187.979 235.121 187.808 235.015 187.676 234.869L186.96 234.053C186.622 233.664 186.387 233.197 186.277 232.695L185.035 226.58C184.808 225.479 184.979 224.333 185.52 223.346L189.485 216.07L199.081 216.559Z" fill="#F3B2A7"/>
<path d="M173.767 72.526C173.767 72.526 176.668 81.6435 174.696 86.9021L174.061 85.8898C174.061 85.8898 174.382 90.1972 172.348 92.0927L171.781 90.8698C171.781 90.8698 170.464 95.0345 169.625 96.305L169.236 95.4217L167.618 99.8446L160.643 97.5754L158.998 91.3114C158.998 91.3114 162.493 80.835 162.936 80.4953C163.38 80.1556 173.767 72.526 173.767 72.526Z" fill="#221E1F"/>
<path d="M169.051 106.978C169.051 106.978 174.334 104.845 182.96 106.299C191.587 107.753 196.494 114.452 203.619 138.747C210.744 163.042 210.369 175.326 210.369 175.326L203.592 219.066L187.117 216.783V170.869L169.051 106.978Z" fill="#FFF9E2"/>
<path d="M141.138 72.526C141.138 72.526 138.237 81.6435 140.21 86.9021L140.844 85.8898C140.844 85.8898 140.523 90.1972 142.564 92.0927L143.117 90.8698C143.117 90.8698 144.427 95.0345 145.267 96.305L145.656 95.4217L147.28 99.8446L154.248 97.5754L155.893 91.3114C155.893 91.3114 152.406 80.835 151.955 80.4953C151.505 80.1556 141.138 72.526 141.138 72.526Z" fill="#221E1F"/>
<path d="M149.676 91.5084L148.447 90.4282L148.242 98.1597C148.22 98.9366 147.964 99.689 147.51 100.321C147.055 100.952 146.421 101.435 145.69 101.706C145.121 101.915 144.623 102.28 144.255 102.76C143.887 103.24 143.664 103.814 143.612 104.416C143.56 105.017 143.68 105.621 143.96 106.157C144.24 106.692 144.667 107.137 145.192 107.44C148.502 109.343 152.986 111.197 157.476 110.837C161.815 110.359 166.048 109.189 170.014 107.372C170.407 107.202 170.741 106.92 170.976 106.563C171.211 106.206 171.336 105.788 171.336 105.361C171.336 104.934 171.211 104.517 170.976 104.16C170.741 103.802 170.407 103.521 170.014 103.35C169.329 103.057 168.743 102.573 168.325 101.958C167.908 101.343 167.677 100.621 167.659 99.8786L167.372 89.3479L149.676 91.5084Z" fill="#F3B2A7"/>
<path d="M148.235 105.477C148.235 105.477 180.619 99.1856 187.178 115.05C193.737 130.914 189.526 175.441 189.526 175.441L191.641 208.053C191.641 208.053 184.612 201.992 169.932 208.053C155.251 214.113 128.177 227.681 122.936 211.321C116.978 192.705 122.185 161.656 122.936 120.831C123.086 113.494 122.936 100.381 148.235 105.477Z" fill="#FFF9E2"/>
<g style="mix-blend-mode:multiply">
<path d="M141.868 107.977C141.868 107.977 155.04 113.344 167.946 111.191C169.64 110.934 171.178 110.063 172.266 108.745C172.956 107.895 173.381 106.863 173.487 105.776C173.788 102.311 165.625 105.776 165.625 105.776L141.868 107.977Z" fill="#F9E4B9"/>
</g>
<path d="M144.714 98.3432C149.164 96.5767 150.358 100.938 164.151 98.2141C167.045 97.6366 171.583 96.9368 173.215 100.157C174.013 101.747 173.488 105.803 174.846 106.598C176.941 107.834 170.457 108.82 168.267 109.125C160.946 110.181 153.515 110.229 146.181 109.268C144.393 109.017 138.278 108.589 139.52 107.039C143.602 101.828 140.838 99.8582 144.714 98.3432Z" fill="#FFF9E2"/>
<g style="mix-blend-mode:multiply">
<path d="M152.173 94.1988L148.276 96.8281C148.276 96.8281 150.536 104.104 158.514 104.247C164.881 104.363 168.608 93.4719 168.608 93.4719L152.173 94.1988Z" fill="#F9E4B9"/>
</g>
<path d="M141.984 73.9527C143.015 64.4819 148.413 56.4513 159.633 57.5112C176.879 59.135 175.583 87.8668 166.219 96.5767C160.541 101.856 151.204 101.02 147.212 95.6188C143.219 90.2175 141.151 81.5688 141.984 73.9527Z" fill="#F3B2A7"/>
<g style="mix-blend-mode:multiply" opacity="0.33">
<path d="M172.17 73.0355C171.426 69.3124 170.764 65.6912 168.887 62.8445L159.886 66.9617C159.886 66.9617 158.254 74.3196 158.521 78.0291C159.121 86.277 162.206 86.0528 159.653 88.3696C157.606 90.2379 160.855 95.1636 158.664 100.144C161.749 99.7563 166.547 97.0999 168.007 94.5249C171.74 87.928 173.829 81.3582 172.17 73.0355Z" fill="#F3B2A7"/>
</g>
<path d="M169.618 65.8203C165.717 67.8955 161.36 68.9718 156.937 68.9523C149.682 68.8776 146.7 66.5472 144.693 64.6789C142.44 62.2832 141.18 59.1284 141.165 55.8467C141.302 52.8505 141.595 55.1197 143.445 56.6484C145.294 58.177 145.096 56.1932 144.127 54.3792C143.158 52.5652 143.131 50.3028 144.332 51.0229C145.533 51.7431 147.853 54.3112 149.519 54.2365C151.184 54.1618 148.12 52.8777 148.72 51.9741C149.321 51.0705 150.652 54.0938 155.306 54.2365C159.961 54.3792 165.823 54.2365 168.819 56.9541C171.815 59.6717 169.618 65.8203 169.618 65.8203Z" fill="#221E1F"/>
<path d="M163.817 61.873C163.846 63.725 164.301 65.5456 165.148 67.1947C165.996 68.8438 167.212 70.2772 168.703 71.3846C171.959 73.8236 172.798 80.4817 172.798 80.4817L173.269 79.7548C173.269 79.7548 175.05 78.7357 175.05 74.9514C175.087 72.9231 174.895 70.8971 174.477 68.9115C174.477 68.9115 175.562 72.1863 175.562 71.1672C175.562 70.1481 176.074 69.3464 174.736 67.016C173.399 64.6857 173.781 64.7536 173.781 64.7536L175.398 66.4114C174.725 64.6575 173.924 62.9545 173.003 61.3159C172.279 60.0244 171.194 58.9701 169.879 58.2814C168.565 57.5927 167.077 57.2991 165.598 57.4365C162.547 57.6403 163.817 61.873 163.817 61.873Z" fill="#221E1F"/>
<path d="M150.269 61.9681C150.269 61.9681 149.641 67.7022 145.39 71.6971C144.065 72.9383 143.051 74.4707 142.428 76.1718C141.804 77.8729 141.589 79.6955 141.8 81.494L140.79 80.2372C140.79 80.2372 139.008 79.1977 139.008 75.3319C138.972 73.2631 139.164 71.1966 139.582 69.1697C139.582 69.1697 138.503 72.5124 138.503 71.4729C138.503 70.4334 137.991 69.6181 139.329 67.2402C140.667 64.8623 140.285 64.9303 140.285 64.9303L138.694 66.5676C139.367 64.7816 140.166 63.0449 141.083 61.3702C141.794 60.0631 142.875 58.9921 144.191 58.2894C145.507 57.5866 147.001 57.2831 148.488 57.4161C151.546 57.6403 150.269 61.9681 150.269 61.9681Z" fill="#221E1F"/>
<path d="M144.482 76.7179C144.482 76.7179 143.404 73.9459 141.172 74.3399C137.971 74.9106 137.234 84.1301 143.615 84.1301" fill="#F3B2A7"/>
<path d="M170.464 76.7179C170.464 76.7179 171.536 73.9459 173.767 74.3399C176.975 74.9106 177.712 84.1301 171.331 84.1301" fill="#F3B2A7"/>
<g style="mix-blend-mode:multiply" opacity="0.33">
<path d="M170.464 76.7179C170.464 76.7179 171.536 73.9459 173.767 74.3399C176.975 74.9106 177.712 84.1301 171.331 84.1301" fill="#F3B2A7"/>
</g>
<g style="mix-blend-mode:multiply">
<path d="M116.609 95.8294L118.998 84.8503L121.161 88.0571L116.609 95.8294Z" fill="#F9E4B9"/>
</g>
<path d="M104.263 116.048L124.178 139.243L122.444 151.336C122.444 151.336 107.914 129.229 104.263 116.048Z" fill="#F9E4B9"/>
<path d="M187.267 206.443L189.737 171.019L182.285 132.836L185.622 170.869L179.855 205.505L187.267 206.443Z" fill="#F9E4B9"/>
<g style="mix-blend-mode:multiply" opacity="0.55">
<path d="M154.617 220.846C154.617 220.846 153.457 228.842 153.061 231.506C150.385 249.625 143.151 252.852 145.396 252.852H149.942L144.154 264.857H156.132L160.227 232.056L154.617 220.846Z" fill="#024386"/>
</g>
<path d="M215.672 111.986L211.133 110.124C211.133 110.124 213.276 99.0905 229.69 95.5576C248.8 91.4473 253.502 94.4434 259.685 102.053" fill="#6CBBB3"/>
<path d="M229.069 93.2409L227.745 92.2761L228.243 99.9941C228.292 100.77 228.106 101.543 227.711 102.213C227.316 102.884 226.729 103.421 226.025 103.758L220.565 106.367C220.565 106.367 230.011 113.29 238.596 111.761C247.182 110.233 254.853 104.641 254.853 104.641L250.376 103.174C249.668 102.942 249.04 102.514 248.567 101.94C248.095 101.366 247.796 100.67 247.708 99.9329L246.452 89.511L229.069 93.2409Z" fill="#F3B2A7"/>
<g style="mix-blend-mode:multiply" opacity="0.74">
<path d="M229.069 93.2409L228.073 97.2629C228.073 97.2629 233.041 103.378 239.955 103.445C246.868 103.513 248.52 101.903 248.52 101.903C248.52 101.903 247.537 100.198 246.854 91.4473L229.069 93.2409Z" fill="#F3B2A7"/>
</g>
<path d="M237.941 59.4475C237.941 59.4475 247.858 53.693 250.362 58.2586C252.867 62.8241 250.69 63.0144 253.092 65.732C254.976 67.8993 255.563 70.7595 253.939 74.1769C253.34 75.4714 253.072 76.8932 253.159 78.3156C253.246 79.738 253.685 81.117 254.437 82.3297C254.455 82.3688 254.478 82.4054 254.505 82.4384C258.648 87.1399 253.263 93.5874 250.328 93.3088C244.759 92.7993 243.087 95.0956 243.415 96.5767C243.742 98.0578 231.369 95.6188 231.369 95.6188C231.369 95.6188 225.745 97.1814 223.179 96.9776C220.613 96.7738 217.037 95.8973 216.955 92.3644C216.873 88.8316 220.859 87.0991 217.958 84.8503C215.058 82.6015 210.751 76.6975 214.245 71.9417C218.292 66.3706 225.274 64.0471 225.274 64.0471L237.941 59.4475Z" fill="#221E1F"/>
<path d="M220.558 76.4053C220.715 67.4441 225.083 59.4203 235.689 59.4951C251.994 59.5494 253.243 86.5827 245.244 95.544C240.371 100.979 231.553 100.979 227.349 96.2642C223.145 91.5492 220.436 83.6206 220.558 76.4053Z" fill="#F3B2A7"/>
<g style="mix-blend-mode:multiply" opacity="0.27">
<path d="M248.772 72.9812C247.755 69.5842 246.82 66.1872 244.821 63.7074L236.74 68.3341C236.74 68.3341 235.839 75.3659 236.413 78.824C237.689 86.5012 240.555 86.0256 238.364 88.4103C236.59 90.3398 240.071 94.688 238.446 99.5321C241.306 98.9071 245.694 96.4748 246.759 93.8999C249.318 87.6698 251.059 80.6788 248.772 72.9812Z" fill="#F3B2A7"/>
</g>
<path d="M250.499 204.18V239.597L243.046 264.857H218.415L216.511 209.486L219.487 190.341L236.706 188.968L247.155 194.954L250.499 204.18Z" fill="#667EA2"/>
<g style="mix-blend-mode:multiply" opacity="0.09">
<path d="M250.499 204.18V239.597L243.046 264.857H218.415L216.511 209.486L219.487 190.341L236.706 188.968L247.155 194.954L250.499 204.18Z" fill="#667EA2"/>
</g>
<path d="M245.715 59.298C245.715 59.298 243.053 69.9374 239.095 69.7404C235.136 69.5434 233.348 68.5039 232.147 69.8763C230.946 71.2487 231.553 74.6864 228.427 75.0601C225.302 75.4338 223.527 73.6538 222.326 75.8686C221.125 78.0834 216.409 81.0117 215.262 78.2601C214.116 75.5085 215.146 80.9777 215.146 80.9777C215.146 80.9777 210.437 75.393 214.464 70.7867C217.439 67.3897 215.617 66.7579 215.829 63.4967C216.04 60.2356 218.62 57.7422 223.582 57.6471C228.543 57.552 229.519 51.9741 234.181 53.3737C238.842 54.7732 237.948 56.2543 241.21 55.6497C244.473 55.045 248.329 54.9703 250.397 58.2246C252.464 61.4789 245.715 59.298 245.715 59.298Z" fill="#221E1F"/>
<path d="M272.912 179.348C272.912 179.348 279.928 194.003 280.91 214.765C281.893 235.528 279.163 264.857 279.163 264.857H250.499L244.636 188.805L244.582 188.968L272.912 179.348Z" fill="#667EA2"/>
<path d="M272.106 59.366C272.106 59.366 267.793 55.7855 263.773 54.2093C259.753 52.6331 258.511 53 255.072 51.6684C251.632 50.3368 245.94 49.4807 246.022 48.9032C246.104 48.3257 246.629 46.2875 249.27 46.7359C251.912 47.1843 254.696 47.4153 254.696 47.4153L245.681 39.2625C245.681 39.2625 242.097 36.0897 243.483 34.8125C244.868 33.5352 251.359 40.764 251.98 40.2884C252.867 39.609 249.018 35.125 249.018 35.125C249.018 35.125 244.684 30.4575 246.049 29.1531C247.414 27.8486 253.966 36.5721 253.966 36.5721C253.966 36.5721 255.331 37.7814 255.392 36.5721C255.454 35.3628 249.721 28.8405 250.71 27.4206C251.7 26.0006 255.931 32.1085 255.931 32.1085C255.931 32.1085 257.904 35.9267 258.825 34.7377C259.747 33.5488 256.095 27.6176 257.276 26.9858C258.457 26.3539 260.975 31.1437 261.698 33.0596C262.582 35.2899 263.923 37.3122 265.636 38.9976C267.302 40.533 269.465 42.6392 269.363 45.2005L275.771 49.406L272.106 59.366Z" fill="#F3B2A7"/>
<g style="mix-blend-mode:multiply" opacity="0.24">
<path d="M255.119 47.2862C255.119 47.2862 260.886 46.831 262.893 48.0336L260.204 45.3839C260.204 45.3839 256.655 46.8107 255.119 47.2862Z" fill="#F3B2A7"/>
</g>
<path d="M223.5 77.9068C223.5 77.9068 222.06 73.2869 219.064 76.1268C216.068 78.9667 218.668 88.0706 224.06 84.6261" fill="#F3B2A7"/>
<path d="M250.745 78.0699C250.745 78.0699 250.929 73.6673 248.697 73.7625C245.899 73.8915 245.455 71.7922 245.612 69.4075C245.879 65.4466 241.825 71.0109 237.627 69.6249C235.027 68.7689 235.962 63.8772 235.962 63.8772L238.556 60.2832L247.278 59.7261L251.966 66.5201L250.745 78.0699Z" fill="#221E1F"/>
<path d="M248.151 75.8754C248.151 75.8754 248.704 71.799 251.632 73.7489C254.56 75.6988 253.679 83.7632 248.622 81.6095" fill="#F3B2A7"/>
<g style="mix-blend-mode:multiply" opacity="0.24">
<path d="M248.151 75.8754C248.151 75.8754 248.704 71.799 251.632 73.7489C254.56 75.6988 253.679 83.7632 248.622 81.6095" fill="#F3B2A7"/>
</g>
<path d="M222.114 105.946C222.114 105.946 228.318 110.817 239.497 108.371C250.676 105.925 251.188 103.445 251.188 103.445L260.743 106.251L266.742 117.326C266.742 117.326 271.239 126.837 271.239 127.639C271.239 128.441 268.783 140.942 268.783 140.942L272.789 184.627C272.789 184.627 265.766 193.962 247.462 196.401C229.158 198.84 217.767 191.951 217.767 191.951V113.29L216.62 106.496L222.114 105.946Z" fill="#FFF9E2"/>
<path d="M177.589 203.65L169.051 213.658C168.218 214.641 167.708 215.855 167.591 217.136L166.908 224.426C166.832 225.299 166.965 226.177 167.297 226.988C167.867 228.482 168.552 229.932 169.345 231.322C169.836 232.056 170.553 231.499 171.146 230.779C171.477 230.364 171.71 229.881 171.828 229.365C171.946 228.848 171.947 228.312 171.829 227.796L171.297 225.35C171.21 224.942 171.26 224.517 171.44 224.141L174.538 217.659C174.618 217.496 174.743 217.36 174.9 217.269C175.057 217.177 175.237 217.133 175.419 217.143L176.477 217.197C176.633 217.204 176.786 217.25 176.919 217.332C177.052 217.414 177.162 217.529 177.238 217.665C177.314 217.802 177.354 217.955 177.353 218.111C177.353 218.267 177.312 218.421 177.234 218.556L174.545 223.638C174.454 223.812 174.415 224.007 174.432 224.202C174.448 224.397 174.52 224.583 174.639 224.739C174.757 224.895 174.918 225.014 175.102 225.083C175.286 225.151 175.486 225.166 175.678 225.126L176.736 224.909C177.243 224.804 177.713 224.57 178.101 224.229L182.79 220.058C183.628 219.304 184.176 218.283 184.339 217.17L185.533 208.977L177.589 203.65Z" fill="#F3B2A7"/>
<path d="M214.143 117.407C214.143 117.407 230.7 123.42 264.34 115.512V133.088C264.34 133.088 241.947 142.395 214.143 135.751V117.407Z" fill="#024386"/>
<path d="M215.774 146.424C215.774 146.424 232.338 152.437 265.964 144.542V162.118C265.964 162.118 243.572 171.419 215.76 164.782L215.774 146.424Z" fill="#024386"/>
<path d="M217.412 176.257C217.412 176.257 233.969 182.263 267.609 174.361V191.937C267.609 191.937 245.223 201.238 217.412 194.601V176.257Z" fill="#024386"/>
<path d="M249.891 102.053C249.891 102.053 248.656 103.69 249.762 112.977C250.867 122.265 248.451 130.431 249.434 139.95C250.417 149.468 246.52 158.973 251.086 170.998C255.652 183.024 255.795 213.61 255.795 213.61L257.706 217.687C257.706 217.687 277.054 217.462 284.568 211.341C284.568 211.341 285.483 200.688 283.429 192.318C281.374 183.948 275.464 169.429 275.007 158.66C274.55 147.892 275.573 133.421 275.573 133.421L267.725 109.818L271.82 97.2697C271.82 97.2697 263.391 104.77 249.891 102.053Z" fill="#6CBBB3"/>
<path d="M256.614 107.542L259.515 103.051C265.445 99.2467 273.621 94.0493 277.068 87.9212L280.242 82.2753L262.033 55.4119C262.033 55.4119 270.284 49.7457 272.762 44.7589C272.762 44.7589 292.083 57.3346 299.822 69.1765L304.599 77.8932C304.599 77.8932 305.739 111.863 269.533 138.136L256.614 107.542Z" fill="#6CBBB3"/>
<path d="M220.545 106.367C220.545 106.367 224.237 110.036 226.284 118.419C228.332 126.803 231.294 137.232 231.519 148.789C231.744 160.345 231.519 179.362 231.519 185.279C231.519 191.197 234.345 220.411 234.345 220.411C234.345 220.411 214.45 221.315 211.488 216.783C211.488 216.783 213.993 194.573 214.218 188.676C214.443 182.779 214.45 178.485 214.675 168.736C214.901 158.986 211.263 147.885 211.488 140.88C211.713 133.876 206.254 116.171 206.254 116.171C206.254 116.171 212.048 105.653 220.545 106.367Z" fill="#6CBBB3"/>
<path d="M216.593 116.15L211.133 110.124C211.133 110.124 203.749 112.977 201.927 125.22C200.104 137.463 194.638 164.428 194.638 164.428C194.638 164.428 189.86 170.319 187.813 174.402C185.765 178.485 174.846 204.54 174.846 204.54C174.846 204.54 183.267 210.886 187.594 211.117C187.594 211.117 211.481 183.941 216.607 173.947C221.732 163.953 216.593 116.15 216.593 116.15Z" fill="#6CBBB3"/>
<g style="mix-blend-mode:multiply">
<path d="M255.795 103.445L259.685 102.087C259.685 102.087 258.559 104.05 257.064 106.367C254.659 110.077 252.635 114.02 251.024 118.134L255.795 103.445Z" fill="#6CBBB3"/>
</g>
<g style="mix-blend-mode:multiply">
<path d="M215.153 109.506L211.133 110.477C213.371 111.784 215.474 113.306 217.412 115.022C218.927 116.51 222.149 119.024 225.793 123.977L215.153 109.506Z" fill="#6CBBB3"/>
</g>
<path d="M227.254 102.848C224.524 112.916 226.906 120.512 228.073 125.635C228.073 125.635 220.565 112.95 211.133 110.124C211.133 110.124 229.635 94.192 227.254 102.848Z" fill="#6CBBB3"/>
<path d="M248.158 100.551C250.315 107.753 249.973 121.613 249.973 121.613C249.973 121.613 253.12 110.348 254.976 107.569C258.388 102.426 259.685 102.08 259.685 102.08C259.685 102.08 245.824 92.7449 248.158 100.551Z" fill="#6CBBB3"/>
<g style="mix-blend-mode:multiply">
<path d="M228.072 98.5334C228.072 98.5334 223.5 101.006 225.977 111.986C225.977 111.986 225.848 104.621 227.254 102.848C227.254 102.848 228.823 100.796 228.072 98.5334Z" fill="#6CBBB3"/>
</g>
<g style="mix-blend-mode:multiply">
<path d="M247.373 97.2561C247.373 97.2561 247.551 100.993 248.52 101.903L249.305 106.469C249.305 106.469 250.267 100.49 247.373 97.2561Z" fill="#6CBBB3"/>
</g>
<g style="mix-blend-mode:multiply">
<path d="M214.553 144.943V177.385L204.752 190.599L211.133 171.406L214.553 144.943Z" fill="#6CBBB3"/>
</g>
<g style="mix-blend-mode:multiply">
<path d="M290.288 116.741C290.288 116.741 276.283 124.894 273.492 129.65C269.738 136.104 274.918 155.467 274.918 155.467L275.601 133.353C275.601 133.353 285.401 124.323 290.288 116.741Z" fill="#6CBBB3"/>
</g>
<g style="mix-blend-mode:multiply">
<path d="M285.101 91.4473L280.323 82.2754L278.638 85.2715L285.101 91.4473Z" fill="#586B69"/>
</g>
<g style="mix-blend-mode:multiply">
<path d="M194.638 164.428L199.579 160.624L195.02 162.526L194.638 164.428Z" fill="#6CBBB3"/>
</g>
<g style="mix-blend-mode:multiply" opacity="0.42">
<path d="M246.288 211.164L248.97 247.37L243.046 264.857H238.003L246.288 211.164Z" fill="#667EA2"/>
</g>
<path d="M108.993 92.1199L111.04 79.2113C111.04 79.2113 120.022 96.6379 113.088 114.146C113.088 114.146 110.105 127.999 110.474 130.452C110.842 132.904 101.929 130.452 101.929 130.452L92.5107 126.864L91.3641 103.615L108.993 92.1199Z" fill="#221E1F"/>
<g style="mix-blend-mode:multiply">
<path d="M102.168 105.423L110.48 100.612C110.48 100.612 109.409 110.28 108.242 116.096C107.075 121.912 108.924 135.194 108.924 135.194L93.8279 134.847L93.3365 121.939" fill="#221E1F"/>
</g>
<path d="M100.632 113.344C100.632 113.344 97.9911 121.742 98.3665 123.495C98.7419 125.247 109.587 126.892 114.18 132.524C118.773 138.156 98.3324 140.921 98.3324 140.921L85.7883 143.802L67.2794 124.371L70.6918 115.097L83.775 120.084L86.6551 108.677L100.632 113.344Z" fill="#F3B2A7"/>
<g style="mix-blend-mode:multiply" opacity="0.58">
<path d="M100.632 113.344C100.632 113.344 98.032 122.122 98.3665 123.481C98.7009 124.84 108.222 128.101 108.222 128.101C108.222 128.101 97.5338 131.817 91.0571 127.258C84.5803 122.7 86.1978 111.109 86.1978 111.109L100.632 113.344Z" fill="#F3B2A7"/>
</g>
<path d="M89.0642 85.8354L81.6933 80.6244C81.6933 80.6244 73.3056 90.4621 71.8178 110.008L80.4239 116.999L84.5188 117.081L91.3437 97.1202L89.0642 85.8354Z" fill="#221E1F"/>
<path d="M84.3278 91.4948C86.9622 83.5526 93.0841 77.6418 102.523 80.6244C117.039 85.1764 110.624 109.621 100.974 115.389C95.1247 118.888 87.2625 116.463 84.826 111.096C82.3896 105.728 82.2121 97.8948 84.3278 91.4948Z" fill="#F3B2A7"/>
<g style="mix-blend-mode:multiply" opacity="0.24">
<path d="M110.433 96.2302C110.481 92.8944 110.576 89.6604 109.491 86.8817L101.001 88.7704C101.001 88.7704 98.2709 94.7899 97.7863 98.0306C96.7831 105.225 99.472 105.592 96.8513 107.114C94.7356 108.344 96.6329 113.181 93.8347 117.054C96.5647 117.278 101.485 115.457 103.267 113.562C107.832 108.704 110.358 103.71 110.433 96.2302Z" fill="#F3B2A7"/>
</g>
<path d="M102.168 206.762C102.168 206.762 111.723 224.549 113.443 264.857H31.0326C31.0326 264.857 30.978 246.174 38.4512 222.633C45.9244 199.091 54.0733 193.622 54.0733 193.622" fill="#A1B84E"/>
<g style="mix-blend-mode:multiply">
<path d="M52.4967 205.192C52.4967 205.192 43.9315 214.84 42.7099 248.124C42.7099 248.124 50.0466 217.279 59.8334 207.937" fill="#A1B84E"/>
</g>
<g style="mix-blend-mode:multiply">
<path d="M98.114 205.967C98.114 205.967 105.382 216.613 102.386 249.788C102.386 249.788 99.008 218.264 90.4838 207.774" fill="#A1B84E"/>
</g>
<g style="mix-blend-mode:multiply">
<path d="M65.7028 206.3C65.7028 206.3 59.4444 217.564 65.4776 250.325C65.4776 250.325 65.9417 218.624 73.4694 207.4" fill="#A1B84E"/>
</g>
<g style="mix-blend-mode:multiply">
<path d="M77.0047 206.51C77.0047 206.51 73.4694 221.457 78.7996 257.465C78.7996 257.465 80.9836 222.639 84.942 207.659" fill="#A1B84E"/>
</g>
<path d="M108.911 77.9612C108.911 77.9612 110.508 92.908 98.5438 93.4651C86.5799 94.0222 86.9416 90.2311 81.236 97.0931C78.2331 100.694 77.1411 90.9037 77.9942 86.8545C79.5162 79.8431 95.9299 65.0526 108.911 77.9612Z" fill="#221E1F"/>
<path d="M103.567 82.5199C103.567 82.5199 106.461 99.5661 110.46 100.612C115.783 101.971 117.005 80.6244 107.013 76.3985C98.0456 72.6007 103.662 83.5662 103.662 83.5662L109.491 86.8817" fill="#221E1F"/>
<path d="M96.237 151.88L108.931 135.194C109.04 135.05 109.191 134.943 109.363 134.888C109.535 134.832 109.72 134.829 109.893 134.881C112.316 135.649 121.243 139.474 121.045 154.115C120.828 164.89 119.808 175.633 117.995 186.258C117.971 186.367 117.971 186.481 117.995 186.59C118.5 188.826 123.106 214.989 125.27 221.369C127.543 228.061 128.307 233.245 126.034 237.994C123.762 242.743 118.568 244.19 118.24 243.286C117.913 242.383 120.868 239.38 120.922 236.866C120.922 236.696 121.025 236.54 121.004 236.37L120.663 233.652C120.642 233.471 120.565 233.301 120.443 233.166C120.32 233.03 120.158 232.936 119.98 232.897C119.801 232.857 119.614 232.874 119.446 232.945C119.277 233.016 119.135 233.137 119.039 233.292L117.981 234.991L117.94 235.059L117.428 236.058C117.34 236.228 117.198 236.365 117.024 236.448C116.851 236.531 116.655 236.555 116.466 236.518C116.277 236.48 116.106 236.382 115.978 236.239C115.85 236.096 115.772 235.916 115.756 235.725C115.592 233.571 116.138 231.01 115.968 230.5C115.722 229.766 116.923 226.213 117.674 224.888C117.758 224.741 117.797 224.572 117.786 224.404C117.775 224.235 117.715 224.072 117.612 223.937C115.62 221.315 105.58 207.727 103.874 202.291C102.065 196.503 96.6328 156.772 96.0595 152.552C96.0414 152.434 96.0479 152.314 96.0784 152.198C96.1089 152.082 96.1629 151.974 96.237 151.88Z" fill="#F3B2A7"/>
<path d="M65.1363 128.114L68.2825 120.702L55.9091 85.2443C55.4503 84.319 55.1812 83.3121 55.1174 82.2821L52.7697 46.1992L43.0306 43.9232L40.0141 83.0703C39.6314 87.7348 39.9884 92.4303 41.0719 96.9844L55.445 142.98L65.1363 128.114Z" fill="#F3B2A7"/>
<path d="M108.221 128.114L93.3433 147.661C93.3433 147.661 99.199 190.959 101.69 202.013C110.453 189.505 117.933 186.033 117.933 186.033C119.989 174.07 121.141 161.97 121.38 149.835C121.639 130.866 108.221 128.114 108.221 128.114Z" fill="#006E58"/>
<path d="M53.3294 52.3953C53.3294 52.3953 52.3467 47.2727 52.8926 43.3118C53.4386 39.3509 54.2576 38.488 54.7695 35.091C55.2813 31.694 57.124 26.6868 56.6122 26.4966C56.1003 26.3064 54.1962 25.8172 53.3567 28.1408C52.5173 30.4643 51.4594 32.8966 51.4594 32.8966L48.8865 21.8223C48.8865 21.8223 47.9105 17.4742 46.2384 18.0177C44.5663 18.5612 47.5283 27.1081 46.8595 27.4002C45.904 27.8146 43.9794 22.6444 43.9794 22.6444C43.9794 22.6444 42.1094 17.0122 40.4373 17.4946C38.7652 17.9769 42.9147 27.2983 42.9147 27.2983C42.9147 27.2983 43.2833 28.9492 42.2732 28.4533C41.2631 27.9573 38.5127 20.3412 36.902 20.4975C35.2914 20.6538 38.3694 26.8635 38.3694 26.8635C38.3694 26.8635 40.6011 30.1993 39.2088 30.41C37.8166 30.6206 34.6089 24.9748 33.5647 25.6542C32.5205 26.3336 35.2914 30.5526 36.5267 32.0065C37.9525 33.7374 38.9987 35.7462 39.5979 37.9037C40.1029 39.9419 40.8468 42.6595 43.0103 43.7398L43.5426 50.8531L53.3294 52.3953Z" fill="#F3B2A7"/>
<g style="mix-blend-mode:multiply" opacity="0.24">
<path d="M51.1589 33.1208C51.1589 33.1208 48.1628 37.598 48.2379 39.7721L47.2892 36.3751C47.2892 36.3751 50.0738 34.1467 51.1589 33.1208Z" fill="#F3B2A7"/>
</g>
<path d="M55.9091 85.2443C55.4503 84.3191 55.1812 83.3121 55.1175 82.2822C55.1175 82.2822 49.6576 90.435 40.2325 92.3305C40.4279 93.8957 40.7081 95.4493 41.0719 96.9844L53.7115 149.916L65.1636 128.115C65.1636 128.115 73.5855 117.923 71.4561 115.097C64.1194 105.423 55.9091 85.2443 55.9091 85.2443Z" fill="#006E58"/>
<path d="M95.1657 130.431C99.4721 130.601 104.83 130.261 108.222 128.114C108.222 128.114 115.783 131.26 117.694 138.482C119.605 145.704 109.621 154.876 108.222 166.283C106.822 177.69 104.714 194.947 104.714 194.947C104.714 194.947 108.269 212.842 103.533 215.485C98.7965 218.128 92.3061 216.457 87.1533 215.485C82.0006 214.514 73.5992 218.916 65.7779 216.905C57.9567 214.894 54.5169 209.962 49.5485 209.962C44.58 209.962 39.6251 209.011 40.9628 203.691C42.3005 198.371 50.5176 177.466 50.695 171.202C50.8725 164.938 53.1793 143.836 53.1793 143.836C53.1793 143.836 60.4 115.722 68.6512 114.214C71.8452 113.623 76.7386 118.65 76.7386 118.65C77.3291 120.04 78.1175 121.337 79.0795 122.503C81.0237 124.905 83.4691 126.859 86.2467 128.228C89.0242 129.597 92.0674 130.349 95.1657 130.431Z" fill="#006E58"/>
<g style="mix-blend-mode:multiply" opacity="0.65">
<path d="M109.743 156.153C109.743 156.153 104.284 187.555 104.714 194.913C105.048 200.858 105.15 197.447 105.15 197.447L111.047 191.129C111.047 191.129 109.034 177.113 109.743 156.153Z" fill="#006E58"/>
</g>
<path d="M79.5162 106.211C79.5162 106.211 74.5545 96.1895 72.4593 105.647C70.3641 115.104 72.1522 121.592 72.8005 127.258C73.1575 130.325 72.7044 133.43 71.4858 136.269C70.2673 139.107 68.3256 141.58 65.8528 143.442C65.8528 143.442 84.1912 147.946 84.2799 134.847C84.3823 121.47 82.833 124.432 84.8123 114.866C85.3378 112.386 77.0388 112.121 79.5162 106.211Z" fill="#221E1F"/>
<g style="mix-blend-mode:multiply" opacity="0.65">
<path d="M45.781 117.081L57.7518 142.171L51.3842 165.067C51.3842 165.067 52.2168 152.838 52.7492 147.661C53.1791 143.802 45.781 117.081 45.781 117.081Z" fill="#006E58"/>
</g>
<path d="M85.8293 95.8634C85.8293 95.8634 85.2423 91.3861 82.0347 93.5262C78.827 95.6663 79.762 104.451 85.2765 102.127" fill="#F3B2A7"/>
<path d="M107.409 100.184C107.409 100.184 109.116 96.7194 111.122 99.3215C113.129 101.924 109.955 108.779 106.133 105.402" fill="#F3B2A7"/>
<g style="mix-blend-mode:multiply" opacity="0.24">
<path d="M107.409 100.184C107.409 100.184 109.116 96.7194 111.122 99.3215C113.129 101.924 109.955 108.779 106.133 105.402" fill="#F3B2A7"/>
</g>
<path d="M407.982 84.3679C407.982 84.3679 404.993 87.0855 407.3 85.4006C412.077 81.8677 423.515 83.4507 425.768 97.6298C427.59 109.098 425.454 113.636 435.206 116.374C441.349 118.093 445.484 122.129 447.32 128.345C449.156 134.562 449.218 140.84 456.036 148.279C462.854 155.718 452.077 168.518 442.181 169.239C432.285 169.959 401.58 166.147 401.58 166.147L407.982 84.3679Z" fill="#221E1F"/>
<path d="M411.333 83.7564C411.333 83.7564 411.374 82.0851 406.556 81.3514C396.182 79.7752 389.582 86.5624 386.805 96.6583C384.027 106.754 388.402 109.689 379.68 115.002C370.957 120.315 366.712 121.837 365.347 133.679C363.982 145.521 369.906 144.875 365.347 152.403C360.788 159.931 370.5 169.198 370.5 169.198L385.965 167.228L395.636 166.283L404.358 166.086L410.105 144.175L411.333 83.7564Z" fill="#221E1F"/>
<g style="mix-blend-mode:multiply">
<path d="M394.633 96.4205C394.633 96.4205 387.746 101.815 391.8 115.016C391.8 115.016 393.971 118.535 387.706 121.382C381.44 124.228 367.797 131.892 371.537 148.755C375.277 165.617 404.508 161.018 404.508 161.018L435.084 158.389C435.084 158.389 447.184 162.465 447.368 155.943C447.553 149.42 444.952 134.881 437.24 128.407C430.49 122.774 419.864 120.58 420.629 115.016C421.994 104.899 413.053 100.402 413.053 100.402L394.633 96.4205Z" fill="#221E1F"/>
</g>
<path d="M388.518 215.696L373.776 229.053L373.366 264.857H405.013L415.926 221.77L388.518 215.696Z" fill="#024386"/>
<g style="mix-blend-mode:multiply" opacity="0.1">
<path d="M388.518 215.696L373.776 229.053L373.366 264.857H405.013L415.926 221.77L388.518 215.696Z" fill="#024386"/>
</g>
<g style="mix-blend-mode:multiply" opacity="0.36">
<path d="M405.191 221.878L402.27 234.787C401.692 237.36 400.774 239.846 399.54 242.179C396.735 247.465 391.889 256.895 393.322 256.263C395.056 255.317 396.687 254.195 398.189 252.914L398.066 253.457L391.541 264.857H405L412.698 239.781L405.191 221.878Z" fill="#024386"/>
</g>
<path d="M406.174 224.949L429.59 208.983C436.524 204.228 445.887 209.187 447.532 217.394C450.856 233.979 445.758 237.097 442.714 250.393L438.53 264.857H408.214L406.174 224.949Z" fill="#024386"/>
<path d="M349.678 147.192C349.678 147.192 347.63 142.382 347.309 138.36C346.989 134.338 347.657 133.339 347.398 129.915C347.139 126.491 347.924 121.185 347.398 121.083C346.873 120.981 344.88 120.906 344.559 123.379C344.238 125.852 343.706 128.4 343.706 128.4L338.84 118.154C338.84 118.154 336.963 114.078 335.427 114.988C333.892 115.899 338.635 123.617 338.041 124.045C337.188 124.65 334.206 119.968 334.206 119.968C334.206 119.968 331.189 114.846 329.647 115.702C328.104 116.558 334.144 124.84 334.144 124.84C334.144 124.84 334.861 126.382 333.762 126.11C332.663 125.839 328.357 118.956 326.814 119.452C325.272 119.948 329.606 125.377 329.606 125.377C329.606 125.377 332.499 128.176 331.175 128.672C329.851 129.168 325.518 124.317 324.63 125.179C323.743 126.042 327.36 129.609 328.889 130.778C330.652 132.171 332.103 133.916 333.148 135.9C334.083 137.803 335.379 140.296 337.707 140.901L339.754 147.756L349.678 147.192Z" fill="#F3B2A7"/>
<g style="mix-blend-mode:multiply" opacity="0.24">
<path d="M343.453 128.774C343.453 128.774 341.467 133.787 342.006 135.9L340.355 132.789C340.355 132.789 342.6 130.01 343.453 128.774Z" fill="#F3B2A7"/>
</g>
<path d="M425.46 130.52C425.46 130.52 415.223 132.599 398.161 131.036C377.127 129.106 377.687 139.46 378.581 155.229C379.475 170.998 380.43 189.967 380.43 189.967C380.43 189.967 371.763 226.424 373.742 229.053C375.721 231.682 424.307 244.108 448.064 229.005C448.064 229.005 452.05 222.463 440.816 196.021C431.664 174.49 437.404 152.743 437.404 152.743C437.404 152.743 442.079 129.507 425.46 130.52Z" fill="#BD262B"/>
<path d="M389.493 131.206C389.493 131.206 383.174 129.697 376.922 135.561C370.671 141.424 362.529 168.94 362.529 168.94L347.609 140.004C347.609 140.004 344.361 141.92 337.591 142.905C337.591 142.905 339.167 205.294 358.87 203.406C368.159 202.516 383.351 184.117 383.351 184.117L384.109 139.59L389.493 131.206Z" fill="#BD262B"/>
<g style="mix-blend-mode:multiply">
<path d="M378.615 162.886L380.068 187.841C380.068 187.841 367.354 202.787 358.877 203.406C358.877 203.406 367.026 199.288 370.186 193.534C373.189 188.099 369.688 186.815 370.828 185.041C374.479 179.389 378.615 162.886 378.615 162.886Z" fill="#BD262B"/>
</g>
<g style="mix-blend-mode:multiply">
<path d="M423.706 152.417L432.094 182.799L412.05 211.755L428.074 181.835L423.706 152.417Z" fill="#BD262B"/>
</g>
<g style="mix-blend-mode:multiply">
<path d="M424.921 207.136L405.191 232.09L445.73 209.011L440.851 196.021L424.921 207.136Z" fill="#BD262B"/>
</g>
<path d="M395.104 230.317C394.749 229.44 395.929 228.958 398.919 227.715C399.035 227.667 399.601 227.035 399.704 226.988C400.174 226.743 395.957 228.625 395.52 227.844C394.947 226.811 395.759 226.233 399.547 224.63C401.99 223.597 404.324 222.782 404.536 221.878C405.095 219.548 398.441 220.309 400.946 218.943C402.297 218.327 403.696 217.82 405.129 217.428C407.32 216.837 406.992 216.783 411.156 216.634C417.694 216.403 422.512 205.94 420.813 213.665C420.325 216.439 419.28 219.087 417.742 221.45C414.288 226.397 408.706 230.602 405.191 232.09L404.508 232.382C402.754 233.238 401.096 233.578 400.748 233.17C400.263 232.545 402.352 231.383 403.99 230.717C404.46 230.527 398.53 232.885 398.011 232.192C397.492 231.499 400.058 230.215 402.004 229.406C402.556 229.182 395.636 231.641 395.104 230.317Z" fill="#EA9883"/>
<path d="M421.222 131.634H421.905C421.905 131.634 436.046 126.151 443.307 139.827C448.392 149.414 452.064 172.051 453.142 183.988C453.637 189.334 452.062 194.666 448.74 198.894C443.28 205.838 431.678 215.879 418.663 224.392L411.333 214.813L432.115 182.799L420.615 152.729C417.824 145.412 415.653 137.15 421.222 131.634Z" fill="#BD262B"/>
<path d="M399.478 117.842L398.216 116.802L398.284 124.568C398.291 125.349 398.063 126.114 397.63 126.765C397.197 127.416 396.579 127.924 395.854 128.223L390.21 130.54C395.552 133.835 401.705 135.594 407.989 135.622C416.752 135.513 424.683 130.683 424.683 130.683L420.274 128.971C419.578 128.698 418.974 128.233 418.533 127.632C418.092 127.031 417.832 126.317 417.783 125.574L417.1 115.022L399.478 117.842Z" fill="#F3B2A7"/>
<g style="mix-blend-mode:multiply" opacity="0.69">
<path d="M399.915 115.016L397.868 113.052V120.763C397.868 120.763 401.41 130.886 411.333 131.634C421.257 132.381 425.563 131.206 425.488 130.54C425.488 130.54 418.09 129.643 417.871 126.192C417.653 122.74 417.141 115.036 417.141 115.036L399.915 115.016Z" fill="#F3B2A7"/>
</g>
<path d="M391.875 100.497C392.558 91.5152 397.335 83.7496 407.982 84.3679C424.327 85.3191 424.089 112.495 415.544 121.056C410.364 126.239 401.519 125.764 397.561 120.804C393.602 115.845 391.357 107.719 391.875 100.497Z" fill="#F3B2A7"/>
<g style="mix-blend-mode:multiply" opacity="0.27">
<path d="M420.355 98.6013C419.523 95.1092 418.772 91.7122 416.909 89.0897L408.549 93.2816C408.549 93.2816 407.238 100.293 407.641 103.778C408.494 111.551 411.401 111.252 409.067 113.501C407.184 115.342 410.432 119.887 408.535 124.656C411.435 124.181 415.974 121.986 417.182 119.459C420.096 113.365 422.253 106.435 420.355 98.6013Z" fill="#F3B2A7"/>
</g>
<g style="mix-blend-mode:multiply">
<path d="M365.32 179.28L362.536 168.94L363.928 164.483L365.32 179.28Z" fill="#BD262B"/>
</g>
<path d="M387.344 99.0973C387.794 94.4774 391.8 82.6218 406.549 81.3514C412.186 80.869 412.05 90.6795 408.044 95.9041C405.436 99.3011 402.584 99.403 398.345 100.714C390.265 103.235 391.8 114.982 391.8 114.982C391.8 114.982 386.975 102.814 387.344 99.0973Z" fill="#221E1F"/>
<path d="M408.419 91.0668C408.419 91.0668 409.245 98.0035 415.175 98.5402C425.133 99.3894 417.632 117.02 423.031 117.02C425.317 117.02 422.894 104.281 422.894 104.281L421.714 96.2778L419.523 89.178L416.465 87.2146L410.002 83.8176L407.34 86.3382L408.419 91.0668Z" fill="#221E1F"/>
<path d="M395.636 104.668C395.636 104.668 395.363 100.959 392.073 102.168C388.784 103.378 388.989 112.495 395.049 111.721" fill="#F3B2A7"/>
<path d="M417.844 104.458C417.844 104.458 418.117 100.748 421.4 101.958C424.682 103.167 424.491 112.284 418.431 111.51" fill="#F3B2A7"/>
<g style="mix-blend-mode:multiply" opacity="0.27">
<path d="M417.844 104.458C417.844 104.458 418.117 100.748 421.4 101.958C424.682 103.167 424.491 112.284 418.431 111.51" fill="#F3B2A7"/>
</g>
</g>
<defs>
<clipPath id="clip0">
<rect width="487" height="265" fill="white"/>
</clipPath>
</defs>
</svg>
