<svg width="21" height="21" viewBox="0 0 21 21" fill="none" xmlns="http://www.w3.org/2000/svg">
<path d="M4.74191 6.77438H16.258C16.4453 6.77438 16.5967 6.62263 16.5967 6.43567V0.338893C16.5967 0.151925 16.4453 0.000183105 16.258 0.000183105H4.74191C4.5546 0.000183105 4.4032 0.151925 4.4032 0.338893V6.43567C4.4032 6.62263 4.5546 6.77438 4.74191 6.77438ZM12.1935 6.09696H11.8548V5.41954H11.1774V6.09696H9.82255V5.41954H9.14513V6.09696H8.80642V5.08083C8.80642 4.8942 8.95817 4.74212 9.14513 4.74212H11.8548C12.0418 4.74212 12.1935 4.8942 12.1935 5.08083V6.09696ZM5.08062 0.677602H10.5H15.9193V6.09696H12.8709V5.08083C12.8709 4.5206 12.415 4.0647 11.8548 4.0647H10.5H9.14513C8.58491 4.0647 8.129 4.5206 8.129 5.08083V6.09696H5.08062V0.677602Z" fill="#2B2E2D"/>
<path d="M0.148694 8.07094C0.205597 8.10956 0.271984 8.1292 0.33871 8.1292C0.381387 8.1292 0.424065 8.12141 0.464371 8.10515L3.85147 6.75031C3.98018 6.69849 4.06452 6.57418 4.06452 6.43565V0.338878C4.06452 0.226426 4.00863 0.121426 3.91582 0.0584259C3.82234 -0.00491278 3.70379 -0.0174451 3.60015 0.0242162L0.213048 1.37906C0.0843387 1.43088 0 1.55518 0 1.69372V7.79049C0 7.90294 0.0558871 8.00794 0.148694 8.07094ZM0.677419 1.92302L3.3871 0.839152V6.20635L0.677419 7.29022V1.92302Z" fill="#2B2E2D"/>
<path d="M20.787 1.37909L17.3999 0.0242518C17.2962 -0.0170708 17.1777 -0.00487721 17.0842 0.0584615C16.9914 0.121461 16.9355 0.226461 16.9355 0.338913V6.43569C16.9355 6.57422 17.0198 6.69852 17.1485 6.75035L20.5356 8.10519C20.5759 8.12144 20.6186 8.12923 20.6613 8.12923C20.728 8.12923 20.7944 8.10959 20.8513 8.07098C20.9441 8.00798 21 7.90298 21 7.79052V1.69375C21 1.55522 20.9157 1.43091 20.787 1.37909ZM20.3226 7.29025L17.6129 6.20638V0.839187L20.3226 1.92306V7.29025Z" fill="#2B2E2D"/>
<path d="M9.14514 2.03242V2.70984C9.14514 3.45703 9.75279 4.06468 10.5 4.06468C11.2472 4.06468 11.8548 3.45703 11.8548 2.70984V2.03242C11.8548 1.28523 11.2472 0.677582 10.5 0.677582C9.75279 0.677582 9.14514 1.28523 9.14514 2.03242ZM9.82256 2.03242C9.82256 1.65882 10.1264 1.355 10.5 1.355C10.8736 1.355 11.1774 1.65882 11.1774 2.03242V2.70984C11.1774 3.08344 10.8736 3.38726 10.5 3.38726C10.1264 3.38726 9.82256 3.08344 9.82256 2.70984V2.03242Z" fill="#2B2E2D"/>
<path d="M11.97 14.2707C12.3175 13.9059 12.5323 13.4137 12.5323 12.8711V12.1937C12.5323 11.0729 11.6208 10.1614 10.5 10.1614C9.37922 10.1614 8.46775 11.0729 8.46775 12.1937V12.8711C8.46775 13.4137 8.6825 13.9059 9.03001 14.2707C7.93937 14.483 7.11292 15.445 7.11292 16.5969V17.9518C7.11292 18.1391 7.26432 18.2905 7.45162 18.2905H13.5484C13.7357 18.2905 13.8871 18.1391 13.8871 17.9518V16.5969C13.8871 15.445 13.0607 14.483 11.97 14.2707ZM9.14517 12.1937C9.14517 11.4465 9.75282 10.8389 10.5 10.8389C11.2472 10.8389 11.8549 11.4465 11.8549 12.1937V12.8711C11.8549 13.6183 11.2472 14.226 10.5 14.226C9.75282 14.226 9.14517 13.6183 9.14517 12.8711V12.1937ZM13.2097 17.6131H12.5323V16.2582H11.8549V17.6131H9.14517V16.2582H8.46775V17.6131H7.79033V16.5969C7.79033 15.6631 8.55006 14.9034 9.48388 14.9034H11.5161C12.45 14.9034 13.2097 15.6631 13.2097 16.5969V17.6131Z" fill="#2B2E2D"/>
<path d="M19.0829 16.9804C19.4304 16.6156 19.6452 16.1234 19.6452 15.5808V14.9034C19.6452 13.7826 18.7337 12.8711 17.6129 12.8711C16.4921 12.8711 15.5807 13.7826 15.5807 14.9034V15.5808C15.5807 16.1234 15.7954 16.6156 16.1429 16.9804C15.0523 17.1927 14.2258 18.1547 14.2258 19.3066V20.6614C14.2258 20.8488 14.3772 21.0002 14.5645 21.0002H20.6613C20.8486 21.0002 21 20.8488 21 20.6614V19.3066C21 18.1547 20.1736 17.1927 19.0829 16.9804ZM16.2581 14.9034C16.2581 14.1562 16.8657 13.5485 17.6129 13.5485C18.3601 13.5485 18.9678 14.1562 18.9678 14.9034V15.5808C18.9678 16.328 18.3601 16.9356 17.6129 16.9356C16.8657 16.9356 16.2581 16.328 16.2581 15.5808V14.9034ZM20.3226 20.3227H19.6452V18.9679H18.9678V20.3227H16.2581V18.9679H15.5807V20.3227H14.9032V19.3066C14.9032 18.3728 15.663 17.6131 16.5968 17.6131H18.6291C19.5629 17.6131 20.3226 18.3728 20.3226 19.3066V20.3227Z" fill="#2B2E2D"/>
<path d="M4.8571 16.9804C5.20461 16.6156 5.41935 16.1234 5.41935 15.5808V14.9034C5.41935 13.7826 4.50789 12.8711 3.3871 12.8711C2.26631 12.8711 1.35484 13.7826 1.35484 14.9034V15.5808C1.35484 16.1234 1.56958 16.6156 1.9171 16.9804C0.826452 17.1927 0 18.1547 0 19.3066V20.6614C0 20.8488 0.151403 21.0002 0.33871 21.0002H6.43548C6.62279 21.0002 6.77419 20.8488 6.77419 20.6614V19.3066C6.77419 18.1547 5.94774 17.1927 4.8571 16.9804ZM2.03226 14.9034C2.03226 14.1562 2.6399 13.5485 3.3871 13.5485C4.13429 13.5485 4.74194 14.1562 4.74194 14.9034V15.5808C4.74194 16.328 4.13429 16.9356 3.3871 16.9356C2.6399 16.9356 2.03226 16.328 2.03226 15.5808V14.9034ZM6.09677 20.3227H5.41935V18.9679H4.74194V20.3227H2.03226V18.9679H1.35484V20.3227H0.677419V19.3066C0.677419 18.3728 1.43715 17.6131 2.37097 17.6131H4.40323C5.33705 17.6131 6.09677 18.3728 6.09677 19.3066V20.3227Z" fill="#2B2E2D"/>
<path d="M4.4032 8.80661H5.08062V9.48403H4.4032V8.80661Z" fill="#2B2E2D"/>
<path d="M5.41937 8.80661H6.09679V9.48403H5.41937V8.80661Z" fill="#2B2E2D"/>
<path d="M6.43549 8.80661H7.11291V9.48403H6.43549V8.80661Z" fill="#2B2E2D"/>
<path d="M7.11292 10.8389H7.45163C8.01185 10.8389 8.46776 10.383 8.46776 9.82275V8.46791C8.46776 7.90769 8.01185 7.45178 7.45163 7.45178H4.06453C3.5043 7.45178 3.0484 7.90769 3.0484 8.46791V9.82275C3.0484 10.383 3.5043 10.8389 4.06453 10.8389H5.30658L6.57098 11.7873C6.63059 11.8323 6.7024 11.855 6.77421 11.855C6.82569 11.855 6.87785 11.8432 6.92561 11.8194C7.04043 11.7619 7.11292 11.6447 7.11292 11.5163V10.8389ZM6.77421 10.1615C6.5869 10.1615 6.4355 10.3132 6.4355 10.5002V10.8389L5.62259 10.2292C5.564 10.1852 5.49287 10.1615 5.41937 10.1615H4.06453C3.87756 10.1615 3.72582 10.0094 3.72582 9.82275V8.46791C3.72582 8.28128 3.87756 8.1292 4.06453 8.1292H7.45163C7.63859 8.1292 7.79034 8.28128 7.79034 8.46791V9.82275C7.79034 10.0094 7.63859 10.1615 7.45163 10.1615H6.77421Z" fill="#2B2E2D"/>
<path d="M15.9194 9.82275H16.5968V10.5002H15.9194V9.82275Z" fill="#2B2E2D"/>
<path d="M14.9032 9.82275H15.5806V10.5002H14.9032V9.82275Z" fill="#2B2E2D"/>
<path d="M13.8871 9.82275H14.5645V10.5002H13.8871V9.82275Z" fill="#2B2E2D"/>
<path d="M14.4291 7.51954C14.3264 7.44231 14.1889 7.42978 14.0744 7.48736C13.9596 7.54494 13.8871 7.66213 13.8871 7.7905V8.46792H13.5484C12.9882 8.46792 12.5323 8.92383 12.5323 9.48405V10.8389C12.5323 11.3991 12.9882 11.855 13.5484 11.855H16.9355C17.4957 11.855 17.9516 11.3991 17.9516 10.8389V9.48405C17.9516 8.92383 17.4957 8.46792 16.9355 8.46792H15.6935L14.4291 7.51954ZM17.2742 9.48405V10.8389C17.2742 11.0259 17.1225 11.1776 16.9355 11.1776H13.5484C13.3614 11.1776 13.2097 11.0259 13.2097 10.8389V9.48405C13.2097 9.29742 13.3614 9.14534 13.5484 9.14534H14.2258C14.4131 9.14534 14.5645 8.9936 14.5645 8.80663V8.46792L15.3774 9.0776C15.436 9.12163 15.5072 9.14534 15.5807 9.14534H16.9355C17.1225 9.14534 17.2742 9.29742 17.2742 9.48405Z" fill="#2B2E2D"/>
</svg>
