<svg width="22" height="22" viewBox="0 0 22 22" fill="none" xmlns="http://www.w3.org/2000/svg">
<path d="M11 9.53332C10.9465 9.53332 10.8933 9.52159 10.8438 9.49849L4.61046 6.56515C4.48213 6.50465 4.39999 6.37522 4.39999 6.23332C4.39999 6.09142 4.48213 5.96199 4.61046 5.90149L10.8438 2.96815C10.9428 2.92159 11.0572 2.92159 11.1562 2.96815L17.3895 5.90149C17.5179 5.96199 17.6 6.09142 17.6 6.23332C17.6 6.37522 17.5179 6.50465 17.3895 6.56515L11.1562 9.49849C11.1067 9.52159 11.0535 9.53332 11 9.53332ZM5.62796 6.23332L11 8.76149L16.372 6.23332L11 3.70515L5.62796 6.23332Z" fill="#2B2E2D"/>
<path d="M11 12.4667C10.9439 12.4667 10.8874 12.4538 10.8361 12.4282L6.4361 10.2282C6.3118 10.1658 6.23334 10.039 6.23334 9.9V7.0961C6.23334 6.9707 6.2975 6.85373 6.40347 6.78663C6.50944 6.71917 6.64254 6.71147 6.75584 6.76427L11 8.7615L15.2438 6.76427C15.3575 6.7111 15.4906 6.71917 15.5962 6.78663C15.7025 6.85373 15.7667 6.9707 15.7667 7.0961V9.9C15.7667 10.039 15.6882 10.1658 15.5639 10.2282L11.1639 12.4282C11.1126 12.4538 11.0561 12.4667 11 12.4667ZM6.96667 9.6734L11 11.6901L15.0333 9.6734V7.67397L11.1562 9.4985C11.0572 9.54507 10.9428 9.54507 10.8438 9.4985L6.96667 7.67397V9.6734Z" fill="#2B2E2D"/>
<path d="M17.2333 6.6H11C10.7976 6.6 10.6333 6.43574 10.6333 6.23334C10.6333 6.03094 10.7976 5.86667 11 5.86667H17.2333C17.4357 5.86667 17.6 6.03094 17.6 6.23334C17.6 6.43574 17.4357 6.6 17.2333 6.6Z" fill="#2B2E2D"/>
<path d="M17.2333 9.9C17.0309 9.9 16.8667 9.73574 16.8667 9.53334V6.23334C16.8667 6.03094 17.0309 5.86667 17.2333 5.86667C17.4357 5.86667 17.6 6.03094 17.6 6.23334V9.53334C17.6 9.73574 17.4357 9.9 17.2333 9.9Z" fill="#2B2E2D"/>
<path d="M11 7.3333C10.7976 7.3333 10.6333 7.16903 10.6333 6.96663V5.49997C10.6333 5.29757 10.7976 5.1333 11 5.1333C11.2024 5.1333 11.3667 5.29757 11.3667 5.49997V6.96663C11.3667 7.16903 11.2024 7.3333 11 7.3333Z" fill="#2B2E2D"/>
<path d="M16.4996 11C16.4299 11 16.3592 10.9802 16.2965 10.9384C16.1282 10.8262 16.0827 10.5985 16.1949 10.4298L16.9282 9.32983C17.0404 9.16116 17.2678 9.11533 17.4368 9.22826C17.6051 9.34046 17.6506 9.56816 17.5384 9.73683L16.805 10.8368C16.7343 10.9428 16.618 11 16.4996 11Z" fill="#2B2E2D"/>
<path d="M17.967 11C17.8486 11 17.7324 10.9428 17.6616 10.8368L16.9283 9.73683C16.8161 9.56853 16.8615 9.34046 17.0298 9.22826C17.1981 9.11533 17.4258 9.16116 17.5384 9.32983L18.2717 10.4298C18.3839 10.5981 18.3385 10.8262 18.1702 10.9384C18.1075 10.9802 18.0367 11 17.967 11Z" fill="#2B2E2D"/>
<path d="M11 10.6333C10.7976 10.6333 10.6333 10.4691 10.6333 10.2667V9.16665C10.6333 8.96425 10.7976 8.79999 11 8.79999C11.2024 8.79999 11.3667 8.96425 11.3667 9.16665V10.2667C11.3667 10.4691 11.2024 10.6333 11 10.6333Z" fill="#2B2E2D"/>
<path d="M21.6333 13.9333H0.366667C0.164267 13.9333 0 13.7691 0 13.5667V1.46703C0 0.658167 0.658167 0 1.46703 0H20.533C21.3418 0 22 0.658167 22 1.46703V13.5667C22 13.7691 21.8357 13.9333 21.6333 13.9333ZM0.733333 13.2H21.2667V1.46703C21.2667 1.06223 20.9378 0.733333 20.533 0.733333H1.46703C1.06223 0.733333 0.733333 1.06223 0.733333 1.46703V13.2Z" fill="#2B2E2D"/>
<path d="M20.533 16.8667H1.46703C0.658167 16.8667 0 16.2085 0 15.3996V13.5667C0 13.3643 0.164267 13.2 0.366667 13.2H21.6333C21.8357 13.2 22 13.3643 22 13.5667V15.3996C22 16.2085 21.3418 16.8667 20.533 16.8667ZM0.733333 13.9333V15.3996C0.733333 15.8044 1.06223 16.1333 1.46703 16.1333H20.533C20.9378 16.1333 21.2667 15.8044 21.2667 15.3996V13.9333H0.733333Z" fill="#2B2E2D"/>
<path d="M12.1 15.4H9.89998C9.69758 15.4 9.53331 15.2358 9.53331 15.0334C9.53331 14.831 9.69758 14.6667 9.89998 14.6667H12.1C12.3024 14.6667 12.4666 14.831 12.4666 15.0334C12.4666 15.2358 12.3024 15.4 12.1 15.4Z" fill="#2B2E2D"/>
<path d="M20.1667 13.9333H1.83333C1.63093 13.9333 1.46666 13.769 1.46666 13.5666V1.83331C1.46666 1.63091 1.63093 1.46664 1.83333 1.46664H20.1667C20.3691 1.46664 20.5333 1.63091 20.5333 1.83331V13.5666C20.5333 13.769 20.3691 13.9333 20.1667 13.9333ZM2.19999 13.2H19.8V2.19998H2.19999V13.2Z" fill="#2B2E2D"/>
<path d="M15.7666 21.2667H6.23332C5.62685 21.2667 5.13332 20.7731 5.13332 20.1667C5.13332 19.5602 5.62685 19.0667 6.23332 19.0667H15.7666C16.3731 19.0667 16.8666 19.5602 16.8666 20.1667C16.8666 20.7731 16.3731 21.2667 15.7666 21.2667ZM6.23332 19.8C6.03128 19.8 5.86665 19.9646 5.86665 20.1667C5.86665 20.3687 6.03128 20.5333 6.23332 20.5333H15.7666C15.9687 20.5333 16.1333 20.3687 16.1333 20.1667C16.1333 19.9646 15.9687 19.8 15.7666 19.8H6.23332Z" fill="#2B2E2D"/>
<path d="M15.0333 19.8H6.96667C6.76427 19.8 6.60001 19.6357 6.60001 19.4333C6.60001 19.2309 6.76427 19.0667 6.96667 19.0667C8.18327 19.0667 8.80001 18.2032 8.80001 16.5C8.80001 16.2976 8.96427 16.1333 9.16667 16.1333H12.8333C13.0357 16.1333 13.2 16.2976 13.2 16.5C13.2 18.2032 13.8167 19.0667 15.0333 19.0667C15.2357 19.0667 15.4 19.2309 15.4 19.4333C15.4 19.6357 15.2357 19.8 15.0333 19.8ZM8.75271 19.0667H13.2477C12.7959 18.5665 12.5301 17.8218 12.4769 16.8667H9.52344C9.46991 17.8218 9.20444 18.5665 8.75271 19.0667Z" fill="#2B2E2D"/>
</svg>
