<svg width="3" height="118" viewBox="0 0 3 118" fill="none" xmlns="http://www.w3.org/2000/svg">
<path d="M1.19053 111.425C1.13468 112.599 1.16847 113.687 1.25383 114.743C1.29081 114.157 1.29142 113.566 1.26677 112.965C1.23009 112.71 1.24014 112.379 1.24044 112.069C1.2409 111.782 1.23588 111.525 1.19053 111.425Z" fill="#AEAEAE"/>
<path d="M0.395286 114.388C0.367135 115.055 0.344918 115.392 0.293942 115.533C0.353592 115.725 0.340657 116.274 0.392851 116.594C0.43135 115.94 0.433632 115.347 0.395286 114.388Z" fill="#AEAEAE"/>
<path d="M1.03286 111.827C1.00121 111.833 0.981276 111.985 0.982949 112.2C0.986145 112.671 0.99421 113.141 1.00106 113.641C1.06116 113.244 1.08323 112.774 1.07592 112.232C1.07349 112.046 1.07045 111.82 1.03286 111.827Z" fill="#AEAEAE"/>
<path d="M1.58745 111.168C1.57101 111.566 1.6296 112.349 1.67586 112.343C1.70888 112.338 1.7206 112.16 1.72014 111.952C1.71938 111.544 1.74509 111.036 1.66216 110.946C1.62503 110.934 1.59703 110.934 1.58745 111.168Z" fill="#AEAEAE"/>
<path d="M0.283171 115.501C0.28532 115.523 0.285013 115.551 0.287622 115.572C0.290538 115.565 0.291305 115.541 0.294067 115.533C0.291765 115.526 0.291151 115.511 0.288849 115.506C0.287008 115.5 0.284859 115.504 0.283171 115.501Z" fill="#AEAEAE"/>
<path d="M0.195889 115.216C0.19878 115.66 0.251126 115.441 0.283081 115.501C0.232105 115.006 0.292363 114.244 0.210192 113.728C0.174281 114.28 0.192845 114.756 0.195889 115.216Z" fill="#AEAEAE"/>
<path d="M0.509299 111.723C0.508082 111.648 0.517212 111.5 0.52269 111.497C0.554341 111.483 0.564689 111.652 0.569254 111.839C0.572449 111.968 0.57108 112.097 0.549015 112.148C0.519799 112.084 0.51219 111.904 0.509299 111.723ZM0.28409 109.658C0.280134 109.503 0.290481 109.389 0.314676 109.365C0.336132 109.403 0.348305 109.515 0.347088 109.661C0.345871 109.821 0.327915 109.894 0.307524 109.849C0.297633 109.827 0.286373 109.731 0.28409 109.658ZM1.32036 95.5344C1.3234 95.4776 1.3406 95.4581 1.3514 95.4209C1.37286 95.4599 1.38305 95.5669 1.37529 95.7084C1.37209 95.7661 1.35505 95.8228 1.34516 95.8154C1.32386 95.7986 1.31275 95.6767 1.32036 95.5344ZM0.666184 117.064C0.662989 116.645 0.657359 116.226 0.652642 115.806C0.677141 115.226 0.70164 114.644 0.725987 114.063C0.67075 113.499 0.584318 113.305 0.500017 113.087C0.549776 112.626 0.646403 112.63 0.688553 112.038C0.715944 111.656 0.775442 112.045 0.820179 111.992C0.828701 111.711 0.825201 111.402 0.854113 111.162C0.797963 109.868 0.842396 108.602 0.879221 107.148C0.947696 108.552 1.02987 109.76 0.977825 111.153C1.04417 111.53 1.06167 111.325 1.07597 110.814C1.09195 110.247 1.02013 109.567 1.11736 109.107C1.03063 108.062 1.06121 107.004 1.10108 105.918C1.20258 105.936 1.19619 106.583 1.23788 106.911C1.30377 107.429 1.22084 107.654 1.20212 108.005C1.18325 108.359 1.13912 108.661 1.15784 109.093C1.23575 109.497 1.16378 110.094 1.19497 110.559C1.2569 110.621 1.31062 110.596 1.31153 110.003C1.28566 109.865 1.2429 109.778 1.25584 109.487C1.26999 109.169 1.3164 109.142 1.35688 109.101C1.38701 108.729 1.43996 108.909 1.48226 108.836C1.48485 108.541 1.48713 108.247 1.48957 107.952C1.45685 107.925 1.42444 107.897 1.35322 107.838C1.4742 107.417 1.47526 106.79 1.45594 106.231C1.436 105.647 1.46446 105.215 1.499 104.753C1.48348 104.18 1.48287 103.602 1.49155 103.026C1.49657 102.699 1.52426 102.439 1.57052 102.531C1.62226 102.633 1.5792 102.892 1.57722 103.095C1.57174 103.66 1.58833 104.238 1.55257 104.78C1.62667 105.334 1.65939 105.941 1.5903 106.632C1.55135 107.021 1.58787 107.349 1.59776 107.703C1.55439 108.587 1.67887 109.417 1.61602 110.317C1.61495 110.336 1.64356 110.498 1.66091 110.537C1.68069 110.582 1.70412 110.515 1.70839 110.361C1.7163 110.078 1.71904 109.787 1.72193 109.498C1.75906 105.869 1.79604 102.24 1.83271 98.6105C1.8006 96.9273 1.82738 95.2757 1.88308 93.6381C1.84169 92.3578 1.84169 92.3578 1.90271 91.3677C1.9511 92.1856 1.92036 92.9281 1.91305 93.6613C1.93892 95.325 1.88171 96.9543 1.87197 98.603C1.91442 99.0376 1.9126 99.5382 1.90042 100.007C1.85949 101.58 1.91397 103.178 1.87151 104.746C1.85112 106.084 1.85249 107.421 1.87684 108.769C1.92157 107.443 2.02809 106.205 1.97483 104.761C1.97879 104.094 1.9937 103.442 2.01014 102.782C2.03646 101.714 2.05807 100.617 2.02064 99.5251C2.00557 99.3083 2.0147 99.1027 2.02687 98.8989C2.10783 97.8559 2.08135 96.6658 2.08439 95.5883C2.08926 93.8837 2.13278 92.2135 2.14237 90.5192C2.14572 89.8976 2.1197 89.4203 2.10615 88.875C2.09474 88.4154 2.17843 87.9232 2.17387 87.3332C2.16444 86.1702 2.21541 85.0359 2.211 83.8868C2.2043 82.1924 2.21709 80.5315 2.25117 78.8409C2.29606 76.6245 2.25513 74.3477 2.29971 72.1117C2.30169 72.0159 2.30276 71.9126 2.30032 71.8186C2.24874 69.9037 2.33243 68.014 2.3198 66.1074C2.30976 64.6131 2.35784 63.1365 2.3303 61.6179C2.31721 60.8987 2.29363 60.0501 2.31234 59.4099C2.37671 57.2159 2.34156 55.0144 2.34628 52.8325C2.35023 50.9743 2.34339 49.0985 2.33913 47.232C2.32787 42.3508 2.32437 37.4686 2.30885 32.5874C2.29682 28.7464 2.27309 24.9083 2.25178 21.0692C2.2282 16.7862 2.19929 12.5042 2.18802 8.21662C2.18392 6.58086 2.19016 4.86695 1.98808 3.64152C1.96936 3.52801 1.96358 3.30004 1.95262 3.12325C1.92219 2.62452 1.87258 2.4803 1.79832 2.25327C1.66091 1.83363 1.51757 1.7229 1.37955 1.45772C1.14993 1.01482 0.92092 0.478868 0.676842 0.470494C0.524217 0.464911 0.424242 1.13392 0.318333 1.7136C0.229467 2.20023 0.313159 2.77154 0.32305 3.31307C0.336441 4.0379 0.343745 4.75622 0.213337 5.09119C0.144404 5.26798 0.0823197 5.57689 0.0741026 6.2338C0.0654292 6.90281 0.0407778 7.54576 0.036517 8.23989C0.0206914 10.8647 0.0211479 13.4877 0.015213 16.1126C0.0114087 17.7948 0.0212997 19.479 0.0193215 21.1594C0.0171909 22.9375 -0.00517789 24.7315 0.0263209 26.5198C0.0369727 27.1274 -0.0140038 27.8067 0.00379984 28.3873C0.0424505 29.6387 0.0316465 30.8753 0.0313423 32.1287C0.0308856 34.8643 0.0371244 37.6017 0.047015 40.3363C0.0511237 41.492 0.0561452 42.6355 0.0442759 43.7967C0.0330154 44.8937 0.14425 46.001 0.0471671 47.1259C0.0413847 47.192 0.0447323 47.3334 0.0511234 47.4097C0.092361 47.9075 0.0675575 48.4435 0.0744051 48.9608C0.0958608 50.5863 0.00136402 52.2649 0.11686 53.8411C0.12386 53.9369 0.114577 53.9853 0.11123 54.0802C0.0672528 55.2684 0.0706006 56.4706 0.0944908 57.6774C0.118229 57.5983 0.141207 57.483 0.16601 57.4532C0.181531 57.4336 0.200248 57.5416 0.217443 57.5918C0.209226 57.7128 0.205422 57.8998 0.192335 57.9435C0.150793 58.0868 0.105751 58.1762 0.0620789 58.2859C0.0669484 58.7028 0.0993602 59.0657 0.0731873 59.5514C0.0314931 60.3292 0.0677091 60.9601 0.218356 61.095C0.0841432 61.5817 0.0861214 61.5817 0.0844477 62.5968C0.0836866 63.0313 0.0564484 63.4975 0.0710566 63.8911C0.0873386 64.3275 0.0970775 64.748 0.0880994 65.1723C0.075926 65.7315 0.105599 66.0935 0.170422 66.3531C0.110925 66.5168 0.0613178 66.7467 0.0591875 67.264C0.0587309 67.3571 0.0655785 67.4529 0.0693827 67.545C0.102099 68.3247 0.0947947 69.2087 0.194921 69.8079C0.238594 70.0694 0.235855 70.395 0.186856 70.6537C0.105599 71.0826 0.024645 71.5051 0.146836 72.2113C0.159923 72.2876 0.163118 72.416 0.145923 72.5798C0.0995117 73.0245 0.0952511 73.4656 0.174379 73.7819C0.196899 73.8713 0.200095 74.0285 0.177878 74.076C0.0634477 74.3253 0.185335 74.745 0.162357 75.0539C0.129793 75.494 0.111989 75.9602 0.114576 76.4607C0.116402 76.7985 0.108489 77.1409 0.136945 77.4545C0.17027 77.8202 0.237528 77.4898 0.275875 77.8006C0.123554 78.2603 0.117163 78.2798 0.174378 79.2214C0.201769 79.6736 0.18853 79.9221 0.164031 80.3603C0.128423 81.0051 0.079425 81.7932 0.159161 82.5051C0.176356 82.6576 0.205116 82.8261 0.186247 82.9898C0.0998156 83.7323 0.148053 84.5372 0.158705 85.3225C0.168748 86.0818 0.243919 86.8689 0.136184 87.5705C0.132379 87.5956 0.130858 87.6877 0.133749 87.7082C0.205725 88.2181 0.277852 88.7215 0.141053 89.2835C0.138922 89.2928 0.139836 89.397 0.143792 89.4193C0.243462 90.0093 0.208159 90.5517 0.138009 91.1249C0.123553 91.2449 0.136031 91.484 0.150031 91.6711C0.198877 92.3289 0.159617 93.0835 0.198725 93.7981C0.22931 94.3583 0.131923 95.0412 0.190659 95.7074C0.108793 96.5039 0.159161 97.3004 0.195529 98.0764C0.209833 98.3807 0.21242 98.6812 0.196137 98.9213C0.131618 99.8778 0.18016 100.886 0.165704 101.866C0.151248 102.856 0.136183 103.988 0.188529 104.85C0.248179 105.834 0.076837 106.985 0.250157 107.763C0.253809 107.777 0.242244 108.046 0.229918 108.151C0.145769 108.871 0.229614 109.837 0.158856 110.569C0.248178 111.029 0.177725 111.74 0.211354 112.289C0.228853 112.574 0.246504 112.844 0.298698 112.567C0.301285 111.907 0.26796 111.247 0.296872 110.581C0.367478 110.992 0.367478 110.992 0.342827 112.602C0.347696 112.935 0.349979 113.271 0.35774 113.6C0.366261 113.96 0.399281 114.057 0.445997 113.944C0.460301 113.831 0.474605 113.718 0.489061 113.605C0.578536 113.891 0.58234 114.407 0.562102 114.989C0.554797 115.276 0.566514 115.531 0.588122 115.768C0.594057 116.191 0.584927 116.602 0.574884 117.019C0.568949 117.264 0.588731 117.48 0.631186 117.47C0.668619 117.461 0.667554 117.246 0.666184 117.064Z" fill="#AEAEAE"/>
</svg>
