<svg width="21" height="21" viewBox="0 0 21 21" fill="none" xmlns="http://www.w3.org/2000/svg">
<path d="M13.4751 15.3998C12.6054 15.3998 11.9001 16.1049 11.9001 16.9748C11.9001 17.8447 12.6054 18.5497 13.4751 18.5497C14.345 18.5497 15.0501 17.8447 15.0501 16.9748C15.0493 16.1054 14.3446 15.4007 13.4751 15.3998ZM13.4751 17.8497C12.992 17.8497 12.6001 17.4581 12.6001 16.9748C12.6001 16.4916 12.992 16.0997 13.4751 16.0997C13.9584 16.0997 14.35 16.4916 14.35 16.9748C14.35 17.4581 13.9584 17.8497 13.4751 17.8497Z" fill="#2B2E2D"/>
<path d="M16.9749 17.8497C16.1053 17.8497 15.3999 18.555 15.3999 19.4249C15.3999 20.2946 16.1053 20.9999 16.9749 20.9999C17.8448 20.9999 18.5501 20.2946 18.5501 19.4249C18.549 18.5554 17.8445 17.8508 16.9749 17.8497ZM16.9749 20.2997C16.4918 20.2997 16.0999 19.9081 16.0999 19.4249C16.0999 18.9415 16.4918 18.5497 16.9749 18.5497C17.4583 18.5497 17.85 18.9415 17.85 19.4249C17.85 19.9081 17.4583 20.2997 16.9749 20.2997Z" fill="#2B2E2D"/>
<path d="M0.292937 6.99504C0.863033 7.09006 1.30995 7.53724 1.40505 8.1076C1.43366 8.27578 1.57938 8.39914 1.7502 8.39914C1.92093 8.39914 2.06675 8.27578 2.09535 8.1076C2.19036 7.53724 2.63728 7.09006 3.20746 6.99504C3.376 6.96644 3.49927 6.82063 3.49927 6.64981C3.49927 6.4789 3.376 6.33335 3.20746 6.30475C2.63728 6.20938 2.19036 5.76238 2.09535 5.19211C2.06675 5.02366 1.92093 4.90039 1.7502 4.90039C1.57938 4.90039 1.43366 5.02366 1.40505 5.19211C1.30995 5.76238 0.863033 6.20938 0.292937 6.30475C0.124399 6.33335 0.0012207 6.4789 0.0012207 6.64981C0.0012207 6.82063 0.124399 6.96644 0.292937 6.99504ZM1.7502 6.15008C1.88654 6.34432 2.05587 6.51329 2.25011 6.64981C2.05587 6.78632 1.88654 6.95539 1.7502 7.14963C1.61377 6.95539 1.44462 6.78632 1.25038 6.64981C1.44462 6.51329 1.61377 6.34432 1.7502 6.15008Z" fill="#2B2E2D"/>
<path d="M20.8015 4.23475L12.0516 0.0347427C11.9557 -0.0115809 11.8438 -0.0115809 11.7479 0.0347427L2.99796 4.25546C2.88013 4.31222 2.80389 4.42978 2.8002 4.56024C2.79634 4.69097 2.86548 4.81274 2.97962 4.87644L11.7296 9.75603C11.8358 9.81543 11.9647 9.81543 12.0709 9.75603L16.45 7.3029V11.91C15.134 11.9876 13.8811 12.5011 12.8891 13.3699L11.9001 14.2346L11.7307 14.0866L11.2698 14.6115L11.6699 14.9616C11.8016 15.077 11.9985 15.077 12.1304 14.9616L13.3502 13.8948C14.3052 13.0593 15.5312 12.5992 16.8 12.5997C16.9934 12.5997 17.1501 12.4432 17.1501 12.2497V6.9109L18.9 5.93091V8.74972C18.7359 8.74963 18.5938 8.8636 18.5583 9.0238L17.8583 12.174C17.8351 12.2775 17.8605 12.3862 17.927 12.4688C17.9935 12.5517 18.0939 12.5999 18.2001 12.5997H20.3C20.4063 12.5999 20.5068 12.5517 20.5733 12.4688C20.6397 12.3862 20.665 12.2775 20.6419 12.174L19.9421 9.0238C19.9064 8.8636 19.7642 8.74963 19.6 8.74972V5.53892L20.8209 4.85529C20.9349 4.7916 21.004 4.66956 20.9999 4.53901C20.9957 4.40846 20.9193 4.29099 20.8015 4.23449V4.23475ZM19.8637 11.8998H18.6366L19.1801 9.44967H19.3201L19.8637 11.8998ZM19.2988 4.90539C19.2947 4.90539 19.291 4.90241 19.2864 4.90144L12.8948 4.2287C12.737 3.74467 12.2535 3.44462 11.7494 3.5177C11.2457 3.59078 10.8674 4.0162 10.8538 4.52515C10.8402 5.03418 11.1947 5.47935 11.6941 5.57945C12.1932 5.67947 12.6921 5.40582 12.8758 4.93074L18.2442 5.49487L11.9001 9.04863L3.90934 4.59288L11.9001 0.738195L19.8905 4.57358L19.2988 4.90539ZM12.25 4.54972C12.25 4.74299 12.0934 4.89977 11.9001 4.89977C11.7068 4.89977 11.55 4.74299 11.55 4.54972C11.55 4.35644 11.7068 4.19983 11.9001 4.19983C12.0934 4.19983 12.25 4.35644 12.25 4.54972Z" fill="#2B2E2D"/>
<path d="M17.3249 13.9997C16.4553 13.9997 15.75 14.7048 15.75 15.5747C15.75 16.4446 16.4553 17.1498 17.3249 17.1498C18.1948 17.1498 18.9 16.4446 18.9 15.5747C18.8991 14.7054 18.1945 14.0009 17.3249 13.9997ZM17.3249 16.4498C16.8418 16.4498 16.4499 16.0581 16.4499 15.5747C16.4499 15.0916 16.8418 14.6997 17.3249 14.6997C17.8082 14.6997 18.2001 15.0916 18.2001 15.5747C18.2001 16.0581 17.8082 16.4498 17.3249 16.4498Z" fill="#2B2E2D"/>
<path d="M10.85 18.4049V15.3998C10.8471 13.3936 9.62259 11.5914 7.75842 10.8497L8.71051 9.01961C8.79342 8.85932 8.74078 8.66218 8.589 8.56471L8.23911 8.34019C7.70008 7.99829 7.02286 7.95767 6.44679 8.23246C6.13271 8.3816 5.76826 8.3816 5.45399 8.23246C4.87811 7.95706 4.20071 7.99777 3.66185 8.34019L3.31179 8.56471C3.1601 8.66218 3.10737 8.85932 3.19037 9.01961L4.14149 10.8497C2.27758 11.5914 1.05308 13.3936 1.05 15.3998V18.4049L0.319882 19.1348C0.00746057 19.4475 -0.0858885 19.9174 0.0832628 20.3254C0.252239 20.7336 0.650639 20.9999 1.09238 20.9999H10.8078C11.2495 20.9999 11.6479 20.7336 11.817 20.3254C11.9861 19.9174 11.8926 19.4475 11.5803 19.1348L10.85 18.4049ZM3.95813 8.98048L4.03937 8.92836C4.37381 8.71675 4.79336 8.69157 5.15043 8.86212C5.65622 9.10304 6.24378 9.10304 6.74983 8.86212C7.1069 8.69157 7.52627 8.71675 7.8608 8.92836L7.94196 8.98048L7.08076 10.6366C6.33792 10.4541 5.56226 10.4541 4.81959 10.6366L3.95813 8.98048ZM10.8078 20.2998H1.09238C0.93367 20.2999 0.790575 20.2042 0.729688 20.0575C0.668976 19.9109 0.702578 19.7421 0.814878 19.6298L1.64739 18.7972C1.71327 18.7317 1.75012 18.6426 1.75012 18.5497V15.3998C1.75012 13.0802 3.63053 11.1998 5.94995 11.1998C8.26956 11.1998 10.15 13.0802 10.15 15.3998V18.5497C10.1501 18.6426 10.1869 18.7317 10.2528 18.7972L11.0854 19.6298C11.1977 19.7421 11.2313 19.9109 11.1705 20.0575C11.1096 20.2042 10.9665 20.2999 10.8078 20.2998Z" fill="#2B2E2D"/>
<path d="M6.30008 15.3998H5.60014C5.40677 15.3998 5.25008 15.243 5.25008 15.0497C5.25008 14.8565 5.40677 14.6997 5.60014 14.6997H7.0002V13.9997H6.30008V13.2997H5.60014V13.9997C5.02022 13.9997 4.55005 14.4698 4.55005 15.0497C4.55005 15.6295 5.02022 16.0997 5.60014 16.0997H6.30008C6.49345 16.0997 6.65014 16.2564 6.65014 16.4498C6.65014 16.6431 6.49345 16.7999 6.30008 16.7999H4.90002V17.4997H5.60014V18.1998H6.30008V17.4997C6.88018 17.4997 7.35008 17.0296 7.35008 16.4498C7.35008 15.8699 6.88018 15.3998 6.30008 15.3998Z" fill="#2B2E2D"/>
</svg>
