<svg width="288" height="40" viewBox="0 0 288 40" fill="none" xmlns="http://www.w3.org/2000/svg">
<path d="M273.118 19.7495C276.009 20.6994 278.689 20.1248 281.286 18.6728C279.845 18.0439 278.391 18.0335 276.911 18.4528C276.281 19.0766 275.468 18.9058 274.706 18.9006C273.998 18.8928 273.366 18.9783 273.118 19.7495Z" fill="#FFEBEB"/>
<path d="M280.413 33.2756C282.053 33.7545 282.885 34.1323 283.23 34.9994C283.702 33.9848 285.054 34.2048 285.842 33.317C284.231 32.6622 282.772 32.6234 280.413 33.2756Z" fill="#FFEBEB"/>
<path d="M274.108 22.431C274.124 22.9693 274.497 23.3084 275.027 23.2799C276.188 23.2256 277.344 23.0884 278.574 22.9719C277.596 21.9496 276.44 21.5743 275.107 21.6985C274.649 21.7399 274.092 21.7917 274.108 22.431Z" fill="#FFEBEB"/>
<path d="M272.486 12.9994C273.467 13.2789 275.395 12.2825 275.379 11.4956C275.368 10.934 274.928 10.7347 274.417 10.7425C273.412 10.7554 272.161 10.318 271.941 11.7286C271.911 12.3601 271.911 12.8364 272.486 12.9994Z" fill="#FFEBEB"/>
<path d="M283.153 35.1832C283.206 35.147 283.275 35.1522 283.327 35.1082C283.309 35.059 283.252 35.046 283.231 34.9995C283.215 35.0383 283.178 35.0486 283.164 35.0875C283.15 35.1185 283.16 35.1547 283.153 35.1832Z" fill="#FFEBEB"/>
<path d="M282.45 36.6662C283.544 36.617 283.004 35.7267 283.153 35.1832C281.934 36.0502 280.058 35.0253 278.787 36.4229C280.145 37.0338 281.318 36.718 282.45 36.6662Z" fill="#FFEBEB"/>
<path d="M273.851 31.3371C273.668 31.3578 273.304 31.2025 273.297 31.1093C273.263 30.571 273.677 30.395 274.138 30.3173C274.456 30.263 274.772 30.2863 274.898 30.6616C274.74 31.1585 274.298 31.2879 273.851 31.3371ZM268.769 35.1677C268.389 35.235 268.107 35.059 268.048 34.6474C268.142 34.2825 268.416 34.0754 268.776 34.0962C269.17 34.1169 269.351 34.4223 269.239 34.7691C269.186 34.9373 268.95 35.1289 268.769 35.1677ZM234.003 17.5418C233.864 17.49 233.816 17.1976 233.724 17.0138C233.82 16.6489 234.084 16.4754 234.432 16.6074C234.574 16.6618 234.713 16.9517 234.695 17.1199C234.654 17.4823 234.354 17.6712 234.003 17.5418ZM287.001 28.6686C285.968 28.723 284.937 28.8187 283.904 28.899C282.475 28.4823 281.043 28.0656 279.612 27.6514C278.224 28.591 277.747 30.0611 277.209 31.495C276.075 30.6486 276.085 29.0051 274.628 28.2882C273.687 27.8223 274.644 26.8103 274.516 26.0493C273.822 25.9044 273.061 25.9639 272.47 25.4722C269.287 26.4272 266.17 25.6714 262.592 25.0451C266.046 23.8804 269.021 22.4827 272.45 23.3679C273.377 22.2394 272.873 21.9418 271.614 21.6985C270.219 21.4267 268.545 22.6484 267.413 20.9945C264.841 22.4698 262.237 21.9496 259.564 21.2714C259.608 19.5451 261.199 19.6538 262.008 18.9446C263.284 17.8239 263.836 19.2345 264.701 19.5529C265.572 19.8738 266.316 20.6244 267.379 20.306C268.373 18.9809 269.843 20.2051 270.986 19.6745C271.14 18.6211 271.078 17.7074 269.619 17.6919C269.28 18.1319 269.065 18.8592 268.348 18.6392C267.567 18.3985 267.498 17.6091 267.397 16.9206C266.483 16.4082 266.925 15.5074 266.747 14.7879C266.021 14.7439 265.297 14.7051 264.571 14.6637C264.504 15.2202 264.436 15.7714 264.289 16.9827C263.254 14.9251 261.71 14.907 260.334 15.2357C258.895 15.5747 257.833 15.0907 256.697 14.5032C255.286 14.7672 253.863 14.7776 252.443 14.63C251.639 14.5446 251 14.0736 251.227 13.2867C251.477 12.4067 252.116 13.1392 252.615 13.1729C254.005 13.266 255.428 12.9839 256.763 13.5922C258.126 12.3317 259.619 11.7752 261.321 12.9503C262.278 13.6129 263.087 12.9917 263.957 12.8234C266.133 13.5611 268.176 11.4439 270.391 12.5129C270.439 12.531 270.837 12.0444 270.934 11.7493C271.043 11.4129 270.879 11.0143 270.501 10.9418C269.802 10.8072 269.087 10.7606 268.375 10.7114C259.443 10.0799 250.51 9.45098 241.575 8.82721C237.432 9.37333 233.367 8.9178 229.336 7.97051C226.184 8.67451 226.184 8.67451 223.747 7.63663C225.76 6.81357 227.588 7.33639 229.393 7.46063C233.488 7.02063 237.499 7.9938 241.557 8.15945C242.627 7.43733 243.859 7.46839 245.013 7.67545C248.884 8.37168 252.819 7.4451 256.678 8.16721C259.972 8.51404 263.263 8.49074 266.582 8.07663C263.318 7.31569 260.27 5.50392 256.715 6.4098C255.073 6.34251 253.469 6.08886 251.843 5.80933C249.214 5.36157 246.514 4.99404 243.827 5.63074C243.293 5.88698 242.787 5.73169 242.285 5.52463C239.718 4.14769 236.789 4.59804 234.136 4.54627C229.94 4.46345 225.829 3.72322 221.658 3.56016C220.128 3.50322 218.953 3.9458 217.611 4.17616C216.48 4.37027 215.268 2.94674 213.816 3.02439C210.953 3.18486 208.161 2.3178 205.333 2.39286C201.162 2.50674 197.073 2.28933 192.912 1.70957C187.456 0.946039 181.852 1.64227 176.348 0.883922C176.112 0.850274 175.858 0.832157 175.626 0.873569C170.913 1.75098 166.261 0.327451 161.568 0.542274C157.89 0.713098 154.255 -0.104785 150.517 0.363686C148.746 0.586274 146.658 0.987451 145.082 0.669098C139.681 -0.425725 134.262 0.172157 128.891 0.0919216C124.317 0.0246279 119.7 0.141098 115.105 0.213569C103.09 0.405098 91.0724 0.464627 79.0571 0.728627C69.6024 0.933098 60.1546 1.33686 50.7045 1.69922C40.1619 2.10039 29.6215 2.59216 19.0675 2.78369C15.041 2.85357 10.8221 2.74745 7.80569 6.18463C7.52627 6.50298 6.96513 6.60133 6.52995 6.78769C5.30231 7.30533 4.9473 8.1491 4.38845 9.41216C3.35549 11.7493 3.08293 14.1874 2.43018 16.535C1.33996 20.4406 0.0206987 24.3359 8.54269e-05 28.4874C-0.0136566 31.0834 1.63313 32.7839 3.06003 34.5853C4.2579 36.0969 5.66419 34.6733 6.99719 34.5051C8.7814 34.2773 10.5496 34.1531 11.3741 36.3712C11.8093 37.5437 12.5697 38.5997 14.1867 38.7394C15.8335 38.887 17.4161 39.3063 19.1247 39.3787C25.5859 39.6479 32.0425 39.6402 38.5036 39.7411C42.6446 39.8058 46.7902 39.6376 50.9266 39.6712C55.3036 39.7074 59.7194 40.0879 64.1215 39.5522C65.6171 39.371 67.2891 40.238 68.7183 39.9352C71.7989 39.2778 74.8428 39.4616 77.9279 39.4667C84.6616 39.4745 91.3999 39.3684 98.1313 39.2002C100.976 39.1303 103.791 39.0449 106.649 39.2467C109.35 39.4383 112.075 37.5463 114.844 39.1976C115.007 39.2959 115.355 39.239 115.543 39.1303C116.768 38.4289 118.087 38.8507 119.361 38.7343C123.362 38.3693 127.494 39.9766 131.374 38.0122C131.61 37.8931 131.729 38.051 131.963 38.1079C134.887 38.8559 137.847 38.799 140.817 38.3926C140.622 37.9889 140.338 37.598 140.265 37.1762C140.217 36.9122 140.483 36.5938 140.606 36.3013C140.904 36.4411 141.365 36.5058 141.472 36.7284C141.825 37.435 142.045 38.2011 142.315 38.9439C143.341 38.8611 144.234 38.3098 145.43 38.755C147.345 39.4642 148.898 38.8482 149.23 36.2858C150.428 38.5686 150.428 38.535 152.926 38.5634C153.996 38.5764 155.143 39.0397 156.112 38.7912C157.186 38.5143 158.222 38.3486 159.266 38.5013C160.643 38.7084 161.534 38.2037 162.173 37.1011C162.576 38.1131 163.141 38.9569 164.415 38.9931C164.644 39.0009 164.88 38.8844 165.107 38.8197C167.026 38.2632 169.202 38.3874 170.677 36.6844C171.32 35.9416 172.122 35.9882 172.759 36.8216C173.815 38.2037 174.854 39.5806 176.593 37.5023C176.781 37.2797 177.097 37.2253 177.5 37.5178C178.595 38.3072 179.68 38.3797 180.459 37.0338C180.679 36.6507 181.066 36.5964 181.183 36.9743C181.797 38.9206 182.83 36.8474 183.59 37.2383C184.673 37.7922 185.821 38.095 187.053 38.051C187.884 38.0199 188.727 38.1545 189.499 37.6705C190.399 37.1037 189.586 35.9597 190.351 35.3074C191.483 37.8983 191.531 38.007 193.849 37.0338C194.962 36.5679 195.573 36.7931 196.652 37.2098C198.239 37.8154 200.179 38.6489 201.931 37.2926C202.307 37.0002 202.721 36.511 203.125 36.8319C204.952 38.302 206.933 37.4816 208.867 37.3004C210.736 37.1296 212.673 35.851 214.4 37.6834C214.462 37.7482 214.689 37.774 214.739 37.7249C215.994 36.5006 217.233 35.2738 218.617 37.6006C218.64 37.6369 218.896 37.6213 218.951 37.554C220.403 35.8587 221.738 36.4592 223.149 37.6524C223.445 37.8983 224.033 37.686 224.494 37.4479C226.113 36.6171 227.971 37.2849 229.73 36.6197C231.108 36.0994 232.79 37.7559 234.429 36.7569C236.39 38.1493 238.351 37.2926 240.261 36.674C241.01 36.4307 241.75 36.3867 242.34 36.6637C244.695 37.7611 247.178 36.9354 249.589 37.1813C252.026 37.4272 254.812 37.6834 256.935 36.7931C259.356 35.7785 262.189 38.6929 264.104 35.7449C264.14 35.6827 264.802 35.8794 265.061 36.0891C266.831 37.5204 269.209 36.0943 271.011 37.2978C272.145 35.7785 273.895 36.9769 275.246 36.4049C275.947 36.1072 276.611 35.807 275.929 34.9192C274.305 34.8752 272.681 35.442 271.041 34.9503C272.054 33.7493 272.054 33.7493 276.016 34.1686C276.836 34.0858 277.663 34.047 278.473 33.915C279.36 33.77 279.598 33.2084 279.319 32.4138C279.041 32.1705 278.764 31.9272 278.485 31.6813C279.188 30.1594 280.459 30.0947 281.893 30.439C282.598 30.5632 283.226 30.3639 283.81 29.9964C284.85 29.8954 285.862 30.0507 286.888 30.2216C287.491 30.3225 288.024 29.986 287.999 29.2639C287.976 28.6272 287.447 28.6453 287.001 28.6686Z" fill="#FFEBEB"/>
</svg>
