<svg width="492" height="61" viewBox="0 0 492 61" fill="none" xmlns="http://www.w3.org/2000/svg">
<path d="M465.805 29.8066C470.734 31.2402 475.305 30.3731 479.734 28.1816C477.277 27.2324 474.797 27.2168 472.274 27.8496C471.199 28.791 469.813 28.5332 468.512 28.5254C467.305 28.5137 466.227 28.6426 465.805 29.8066Z" fill="#FFEBEB"/>
<path d="M478.246 50.2208C481.043 50.9434 482.461 51.5138 483.051 52.8224C483.856 51.2911 486.16 51.6231 487.504 50.2833C484.758 49.295 482.27 49.2364 478.246 50.2208Z" fill="#FFEBEB"/>
<path d="M467.492 33.8535C467.52 34.666 468.156 35.1777 469.059 35.1348C471.039 35.0527 473.012 34.8457 475.11 34.6699C473.442 33.127 471.469 32.5606 469.196 32.7481C468.414 32.8106 467.465 32.8887 467.492 33.8535Z" fill="#FFEBEB"/>
<path d="M464.727 19.6192C466.399 20.0411 469.688 18.5372 469.66 17.3497C469.641 16.502 468.891 16.2012 468.02 16.213C466.305 16.2325 464.172 15.5723 463.797 17.7012C463.746 18.6544 463.746 19.3731 464.727 19.6192Z" fill="#FFEBEB"/>
<path d="M482.918 53.0996C483.008 53.0449 483.125 53.0527 483.215 52.9863C483.184 52.9121 483.086 52.8926 483.051 52.8223C483.024 52.8809 482.961 52.8965 482.938 52.9551C482.914 53.002 482.93 53.0566 482.918 53.0996Z" fill="#FFEBEB"/>
<path d="M481.719 55.3379C483.586 55.2637 482.664 53.9199 482.918 53.0996C480.84 54.4082 477.641 52.8613 475.473 54.9707C477.789 55.8926 479.789 55.416 481.719 55.3379Z" fill="#FFEBEB"/>
<path d="M467.055 47.295C466.742 47.3262 466.121 47.0919 466.11 46.9512C466.051 46.1387 466.758 45.8731 467.543 45.7559C468.086 45.6739 468.625 45.709 468.84 46.2755C468.57 47.0255 467.817 47.2208 467.055 47.295ZM458.387 53.0762C457.738 53.1778 457.258 52.9122 457.156 52.2911C457.317 51.7403 457.785 51.4278 458.399 51.459C459.07 51.4903 459.379 51.9512 459.188 52.4747C459.098 52.7286 458.695 53.0176 458.387 53.0762ZM399.094 26.4747C398.856 26.3965 398.774 25.9551 398.617 25.6778C398.781 25.127 399.231 24.8653 399.824 25.0645C400.067 25.1465 400.305 25.584 400.274 25.8379C400.203 26.3848 399.692 26.67 399.094 26.4747ZM489.481 43.2676C487.719 43.3497 485.961 43.4942 484.199 43.6153C481.762 42.9864 479.32 42.3575 476.879 41.7325C474.512 43.1505 473.699 45.3692 472.781 47.5333C470.848 46.2559 470.863 43.7755 468.379 42.6934C466.774 41.9903 468.406 40.463 468.188 39.3145C467.004 39.0958 465.707 39.1856 464.699 38.4434C459.27 39.8848 453.953 38.7442 447.852 37.7989C453.742 36.0411 458.817 33.9317 464.664 35.2676C466.246 33.5645 465.387 33.1153 463.238 32.7481C460.86 32.338 458.004 34.1817 456.074 31.6856C451.688 33.9122 447.246 33.127 442.688 32.1036C442.762 29.4981 445.477 29.6622 446.856 28.5919C449.031 26.9004 449.973 29.0294 451.449 29.5098C452.934 29.9942 454.203 31.127 456.016 30.6465C457.711 28.6465 460.219 30.4942 462.168 29.6934C462.43 28.1036 462.324 26.7247 459.836 26.7012C459.258 27.3653 458.891 28.4629 457.668 28.1309C456.336 27.7676 456.219 26.5762 456.047 25.5372C454.488 24.7637 455.242 23.4044 454.938 22.3184C453.699 22.252 452.465 22.1934 451.227 22.1309C451.113 22.9708 450.996 23.8028 450.746 25.6309C448.981 22.5254 446.348 22.4981 444 22.9942C441.547 23.5059 439.735 22.7754 437.797 21.8887C435.391 22.2872 432.965 22.3028 430.543 22.0801C429.172 21.9512 428.082 21.2403 428.469 20.0528C428.895 18.7247 429.985 19.8301 430.836 19.8809C433.207 20.0215 435.633 19.5958 437.91 20.5137C440.235 18.6114 442.781 17.7715 445.684 19.545C447.317 20.545 448.695 19.6075 450.18 19.3536C453.891 20.4669 457.375 17.2715 461.152 18.8848C461.235 18.9122 461.914 18.1778 462.078 17.7325C462.266 17.2247 461.985 16.6231 461.34 16.5137C460.149 16.3106 458.93 16.2403 457.715 16.1661C442.481 15.2129 427.246 14.2637 412.008 13.3223C404.942 14.1465 398.008 13.459 391.133 12.0294C385.758 13.0919 385.758 13.0919 381.602 11.5254C385.035 10.2833 388.152 11.0723 391.231 11.2598C398.215 10.5958 405.055 12.0645 411.977 12.3145C413.801 11.2247 415.902 11.2715 417.871 11.584C424.473 12.6348 431.184 11.2364 437.766 12.3262C443.383 12.8497 448.996 12.8145 454.656 12.1895C449.09 11.0411 443.891 8.3067 437.828 9.67389C435.027 9.57232 432.293 9.18951 429.52 8.76764C425.035 8.09186 420.43 7.53717 415.848 8.49811C414.938 8.88482 414.074 8.65045 413.219 8.33795C408.84 6.25982 403.844 6.93951 399.32 6.86139C392.164 6.73639 385.152 5.6192 378.039 5.37311C375.43 5.28717 373.426 5.95514 371.137 6.30279C369.207 6.59576 367.141 4.44733 364.664 4.56451C359.781 4.8067 355.02 3.49811 350.195 3.61139C343.082 3.78326 336.11 3.45514 329.012 2.58014C319.707 1.42779 310.149 2.47857 300.762 1.33404C300.36 1.28326 299.926 1.25592 299.531 1.31842C291.492 2.64264 283.559 0.4942 275.555 0.818419C269.281 1.07623 263.082 -0.158145 256.707 0.548887C253.688 0.884824 250.125 1.49029 247.438 1.00982C238.227 -0.642519 228.985 0.259825 219.824 0.138731C212.024 0.0371692 204.149 0.21295 196.313 0.322325C175.82 0.611388 155.324 0.701231 134.832 1.09967C118.707 1.40826 102.594 2.01764 86.4767 2.56451C68.4962 3.16998 50.5197 3.91217 32.5197 4.20123C25.6525 4.3067 18.4572 4.14654 13.3126 9.33404C12.8361 9.81451 11.8791 9.96295 11.1369 10.2442C9.04311 11.0254 8.43765 12.2989 7.48452 14.2051C5.7228 17.7325 5.25796 21.4122 4.14468 24.9551C2.2853 30.8497 0.0353017 36.7286 0.000145696 42.9942C-0.0232913 46.9122 2.7853 49.4786 5.2189 52.1973C7.26186 54.4786 9.6603 52.3301 11.9337 52.0762C14.9767 51.7325 17.9923 51.545 19.3986 54.8926C20.1408 56.6622 21.4376 58.2559 24.1955 58.4669C27.0041 58.6895 29.7033 59.3223 32.6173 59.4317C43.6369 59.838 54.6486 59.8262 65.6681 59.9786C72.7306 60.0762 79.8009 59.8223 86.8556 59.8731C94.3205 59.9278 101.852 60.502 109.36 59.6934C111.91 59.42 114.762 60.7286 117.199 60.2715C122.453 59.2794 127.645 59.5567 132.906 59.5645C144.391 59.5762 155.883 59.4161 167.363 59.1622C172.215 59.0567 177.016 58.9278 181.891 59.2325C186.496 59.5215 191.145 56.6661 195.867 59.1583C196.145 59.3067 196.738 59.2208 197.059 59.0567C199.149 57.9981 201.399 58.6348 203.57 58.459C210.395 57.9083 217.442 60.334 224.059 57.3692C224.461 57.1895 224.664 57.4278 225.063 57.5137C230.051 58.6426 235.098 58.5567 240.164 57.9434C239.832 57.334 239.348 56.7442 239.223 56.1075C239.141 55.709 239.594 55.2286 239.805 54.7872C240.313 54.9981 241.098 55.0958 241.281 55.4317C241.883 56.4981 242.258 57.6544 242.719 58.7755C244.469 58.6505 245.992 57.8184 248.031 58.4903C251.297 59.5606 253.945 58.6309 254.512 54.7637C256.555 58.209 256.555 58.1583 260.817 58.2012C262.641 58.2208 264.598 58.92 266.25 58.545C268.082 58.127 269.848 57.877 271.629 58.1075C273.977 58.42 275.496 57.6583 276.586 55.9942C277.274 57.5215 278.238 58.795 280.41 58.8497C280.801 58.8614 281.203 58.6856 281.59 58.588C284.863 57.7481 288.574 57.9356 291.09 55.3653C292.188 54.2442 293.555 54.3145 294.641 55.5723C296.442 57.6583 298.215 59.7364 301.18 56.5997C301.5 56.2637 302.039 56.1817 302.727 56.6231C304.594 57.8145 306.445 57.9239 307.774 55.8926C308.149 55.3145 308.809 55.2325 309.008 55.8028C310.055 58.7403 311.817 55.6114 313.113 56.2012C314.961 57.0372 316.918 57.4942 319.02 57.4278C320.438 57.3809 321.875 57.584 323.192 56.8536C324.727 55.9981 323.34 54.2715 324.645 53.2872C326.574 57.1973 326.656 57.3614 330.61 55.8926C332.508 55.1895 333.551 55.5294 335.391 56.1583C338.098 57.0723 341.406 58.3301 344.395 56.2833C345.035 55.8419 345.742 55.1036 346.43 55.588C349.547 57.8067 352.926 56.5684 356.223 56.295C359.41 56.0372 362.715 54.1075 365.66 56.8731C365.766 56.9708 366.152 57.0098 366.238 56.9356C368.379 55.088 370.492 53.2364 372.852 56.7481C372.891 56.8028 373.328 56.7794 373.422 56.6778C375.899 54.1192 378.176 55.0255 380.582 56.8262C381.086 57.1973 382.09 56.877 382.875 56.5176C385.637 55.2637 388.805 56.2715 391.805 55.2676C394.156 54.4825 397.024 56.9825 399.82 55.4747C403.164 57.5762 406.508 56.2833 409.766 55.3497C411.043 54.9825 412.305 54.9161 413.313 55.334C417.328 56.9903 421.563 55.7442 425.676 56.1153C429.832 56.4864 434.582 56.8731 438.203 55.5294C442.332 53.9981 447.164 58.3965 450.43 53.9473C450.492 53.8536 451.621 54.1505 452.063 54.4669C455.082 56.627 459.137 54.4747 462.211 56.2911C464.145 53.9981 467.129 55.8067 469.434 54.9434C470.629 54.4942 471.762 54.0411 470.598 52.7012C467.828 52.6348 465.059 53.4903 462.262 52.7481C463.988 50.9356 463.988 50.9356 470.746 51.5684C472.145 51.4434 473.555 51.3848 474.938 51.1856C476.449 50.9669 476.856 50.1192 476.379 48.92C475.906 48.5528 475.434 48.1856 474.957 47.8145C476.156 45.5176 478.324 45.42 480.77 45.9395C481.973 46.127 483.043 45.8262 484.039 45.2715C485.813 45.1192 487.539 45.3536 489.289 45.6114C490.317 45.7637 491.227 45.2559 491.184 44.1661C491.145 43.2051 490.242 43.2325 489.481 43.2676Z" fill="#FFEBEB"/>
</svg>
