<svg width="386" height="48" viewBox="0 0 386 48" fill="none" xmlns="http://www.w3.org/2000/svg">
<path d="M366.055 23.6995C369.929 24.8393 373.52 24.1498 377.001 22.4074C375.071 21.6527 373.121 21.6403 371.138 22.1434C370.294 22.8919 369.204 22.6869 368.182 22.6807C367.233 22.6714 366.386 22.7739 366.055 23.6995Z" fill="#FFEBEB"/>
<path d="M375.832 39.9308C378.03 40.5054 379.144 40.9589 379.608 41.9993C380.24 40.7818 382.051 41.0458 383.107 39.9805C380.949 39.1947 378.994 39.1481 375.832 39.9308Z" fill="#FFEBEB"/>
<path d="M367.381 26.9171C367.402 27.5631 367.903 27.97 368.612 27.9359C370.168 27.8706 371.718 27.706 373.367 27.5663C372.056 26.3394 370.506 25.8891 368.719 26.0382C368.105 26.0879 367.359 26.15 367.381 26.9171Z" fill="#FFEBEB"/>
<path d="M365.207 15.5993C366.521 15.9348 369.106 14.739 369.084 13.7948C369.069 13.1208 368.48 12.8817 367.795 12.891C366.448 12.9065 364.771 12.3816 364.477 14.0744C364.437 14.8322 364.437 15.4037 365.207 15.5993Z" fill="#FFEBEB"/>
<path d="M379.503 42.2198C379.574 42.1763 379.666 42.1825 379.737 42.1297C379.712 42.0707 379.635 42.0552 379.608 41.9993C379.586 42.0459 379.537 42.0583 379.519 42.1049C379.5 42.1421 379.512 42.1856 379.503 42.2198Z" fill="#FFEBEB"/>
<path d="M378.561 43.9995C380.028 43.9404 379.304 42.872 379.503 42.2198C377.87 43.2603 375.356 42.0303 373.652 43.7075C375.473 44.4405 377.044 44.0616 378.561 43.9995Z" fill="#FFEBEB"/>
<path d="M367.037 37.6045C366.791 37.6294 366.303 37.443 366.294 37.3312C366.248 36.6852 366.804 36.474 367.421 36.3808C367.847 36.3156 368.271 36.3435 368.44 36.7939C368.228 37.3902 367.636 37.5455 367.037 37.6045ZM360.225 42.2012C359.716 42.282 359.338 42.0708 359.258 41.5769C359.384 41.139 359.753 40.8905 360.234 40.9154C360.762 40.9402 361.005 41.3067 360.855 41.7229C360.784 41.9248 360.468 42.1546 360.225 42.2012ZM313.63 21.0502C313.442 20.988 313.378 20.6371 313.255 20.4166C313.384 19.9786 313.737 19.7705 314.204 19.9289C314.394 19.9942 314.581 20.342 314.557 20.5439C314.501 20.9787 314.099 21.2055 313.63 21.0502ZM384.66 34.4023C383.276 34.4676 381.895 34.5825 380.51 34.6788C378.595 34.1787 376.676 33.6787 374.757 33.1817C372.897 34.3092 372.259 36.0733 371.537 37.794C370.018 36.7783 370.03 34.8061 368.078 33.9458C366.816 33.3867 368.099 32.1723 367.927 31.2592C366.997 31.0853 365.978 31.1567 365.186 30.5666C360.919 31.7127 356.741 30.8057 351.946 30.0541C356.575 28.6565 360.563 26.9793 365.158 28.0415C366.402 26.6873 365.726 26.3302 364.038 26.0382C362.168 25.7121 359.924 27.1781 358.408 25.1934C354.961 26.9638 351.47 26.3395 347.888 25.5257C347.946 23.4541 350.08 23.5846 351.163 22.7335C352.873 21.3887 353.613 23.0814 354.773 23.4634C355.94 23.8486 356.938 24.7493 358.362 24.3672C359.694 22.777 361.665 24.2461 363.197 23.6094C363.402 22.3453 363.32 21.2489 361.364 21.2303C360.91 21.7583 360.621 22.6311 359.66 22.3671C358.614 22.0782 358.522 21.1309 358.387 20.3047C357.162 19.6898 357.754 18.6089 357.515 17.7455C356.542 17.6927 355.572 17.6461 354.598 17.5964C354.509 18.2642 354.417 18.9257 354.221 20.3793C352.833 17.9101 350.764 17.8884 348.919 18.2828C346.992 18.6897 345.567 18.1089 344.045 17.4039C342.154 17.7207 340.247 17.7331 338.344 17.556C337.267 17.4535 336.41 16.8883 336.714 15.9441C337.049 14.8881 337.905 15.7671 338.574 15.8074C340.438 15.9192 342.344 15.5807 344.134 16.3106C345.96 14.798 347.962 14.1303 350.242 15.5403C351.526 16.3354 352.609 15.59 353.776 15.3881C356.692 16.2733 359.43 13.7327 362.399 15.0154C362.463 15.0372 362.997 14.4533 363.126 14.0992C363.274 13.6954 363.053 13.2171 362.546 13.1302C361.61 12.9687 360.652 12.9128 359.697 12.8537C347.725 12.0959 335.753 11.3412 323.778 10.5927C318.225 11.248 312.776 10.7014 307.374 9.56461C303.15 10.4094 303.15 10.4094 299.883 9.16395C302.582 8.17628 305.031 8.80367 307.45 8.95275C312.939 8.42475 318.314 9.59256 323.754 9.79134C325.187 8.9248 326.839 8.96207 328.386 9.21054C333.574 10.046 338.848 8.93412 344.02 9.80066C348.434 10.2168 352.846 10.1889 357.294 9.69195C352.919 8.77882 348.833 6.6047 344.069 7.69176C341.868 7.61101 339.719 7.30663 337.54 6.9712C334.016 6.43388 330.397 5.99285 326.796 6.75689C326.081 7.06437 325.402 6.87802 324.73 6.62955C321.289 4.97722 317.362 5.51764 313.808 5.45553C308.184 5.35614 302.674 4.46786 297.084 4.27219C295.033 4.20386 293.458 4.73496 291.659 5.01139C290.143 5.24433 288.519 3.53609 286.573 3.62927C282.736 3.82183 278.994 2.78136 275.203 2.87143C269.613 3.00809 264.133 2.7472 258.555 2.05148C251.243 1.13525 243.732 1.97073 236.355 1.06071C236.039 1.02033 235.698 0.998588 235.388 1.04828C229.071 2.10118 222.836 0.392941 216.546 0.650729C211.616 0.855717 206.744 -0.125742 201.734 0.436424C199.362 0.703529 196.562 1.18494 194.45 0.802918C187.211 -0.510871 179.948 0.206588 172.75 0.110306C166.62 0.0295534 160.431 0.169318 154.273 0.256282C138.169 0.486118 122.062 0.557553 105.958 0.874353C93.2865 1.11972 80.6239 1.60424 67.9581 2.03906C53.8281 2.52047 39.7011 3.11059 25.5557 3.34042C20.1591 3.42428 14.5047 3.29694 10.4618 7.42155C10.0873 7.80357 9.3352 7.9216 8.75195 8.14522C7.10657 8.7664 6.63076 9.77892 5.88174 11.2946C4.49729 14.0992 4.13199 17.0249 3.25711 19.842C1.79591 24.5287 0.027742 29.2031 0.000114496 34.1849C-0.0183036 37.3001 2.18884 39.3407 4.10129 41.5024C5.70677 43.3162 7.59159 41.608 9.37818 41.4061C11.7695 41.1328 14.1394 40.9837 15.2445 43.6455C15.8277 45.0524 16.8469 46.3196 19.0141 46.4873C21.2212 46.6644 23.3424 47.1675 25.6325 47.2545C34.2922 47.5775 42.9458 47.5682 51.6056 47.6893C57.1557 47.767 62.7119 47.5651 68.2559 47.6054C74.1221 47.6489 80.0406 48.1055 85.9406 47.4626C87.9452 47.2452 90.1861 48.2856 92.1016 47.9222C96.2304 47.1334 100.31 47.3539 104.445 47.3601C113.47 47.3694 122.501 47.2421 131.523 47.0402C135.336 46.9563 139.109 46.8538 142.94 47.0961C146.559 47.3259 150.212 45.0555 153.923 47.0371C154.141 47.1551 154.608 47.0868 154.859 46.9563C156.502 46.1146 158.27 46.6209 159.977 46.4811C165.34 46.0432 170.877 47.9719 176.078 45.6146C176.394 45.4717 176.553 45.6612 176.866 45.7295C180.787 46.6271 184.753 46.5588 188.734 46.0711C188.473 45.5866 188.092 45.1176 187.994 44.6114C187.93 44.2946 188.286 43.9126 188.452 43.5616C188.851 43.7293 189.468 43.807 189.612 44.0741C190.085 44.922 190.379 45.8413 190.742 46.7327C192.117 46.6333 193.314 45.9718 194.917 46.506C197.483 47.357 199.564 46.6178 200.009 43.543C201.615 46.2823 201.615 46.242 204.964 46.2761C206.397 46.2917 207.935 46.8476 209.234 46.5494C210.674 46.2171 212.061 46.0183 213.461 46.2016C215.306 46.4501 216.5 45.8444 217.356 44.5213C217.897 45.7357 218.655 46.7482 220.362 46.7917C220.669 46.801 220.985 46.6613 221.289 46.5836C223.861 45.9158 226.777 46.0649 228.754 44.0213C229.617 43.1299 230.691 43.1858 231.545 44.1859C232.96 45.8444 234.354 47.4967 236.683 45.0027C236.935 44.7356 237.359 44.6704 237.899 45.0214C239.366 45.9686 240.821 46.0556 241.865 44.4406C242.16 43.9809 242.679 43.9157 242.835 44.3691C243.658 46.7047 245.042 44.2169 246.062 44.6859C247.514 45.3506 249.051 45.714 250.703 45.6612C251.817 45.6239 252.947 45.7854 253.981 45.2046C255.188 44.5244 254.098 43.1516 255.123 42.3689C256.64 45.4779 256.704 45.6084 259.811 44.4406C261.303 43.8815 262.122 44.1517 263.568 44.6518C265.696 45.3785 268.296 46.3786 270.644 44.7511C271.147 44.4002 271.703 43.8132 272.243 44.1983C274.693 45.9624 277.348 44.9779 279.939 44.7605C282.444 44.5555 285.041 43.0212 287.356 45.2201C287.439 45.2978 287.743 45.3288 287.81 45.2698C289.492 43.8007 291.153 42.3286 293.007 45.1207C293.038 45.1642 293.382 45.1456 293.455 45.0648C295.402 43.0305 297.191 43.7511 299.082 45.1829C299.478 45.4779 300.267 45.2232 300.884 44.9375C303.054 43.9405 305.544 44.7418 307.902 43.9436C309.749 43.3193 312.003 45.3071 314.201 44.1082C316.828 45.7792 319.456 44.7511 322.016 44.0088C323.02 43.7169 324.012 43.6641 324.804 43.9964C327.959 45.3133 331.287 44.3225 334.519 44.6176C337.785 44.9126 341.518 45.2201 344.364 44.1517C347.609 42.9342 351.406 46.4314 353.972 42.8938C354.021 42.8193 354.908 43.0553 355.255 43.3069C357.628 45.0245 360.815 43.3131 363.231 44.7574C364.75 42.9342 367.095 44.3722 368.907 43.6858C369.846 43.3286 370.736 42.9684 369.821 41.9031C367.645 41.8503 365.468 42.5304 363.27 41.9403C364.627 40.4992 364.627 40.4992 369.938 41.0023C371.037 40.903 372.145 40.8564 373.232 40.698C374.42 40.524 374.739 39.8501 374.365 38.8966C373.993 38.6046 373.622 38.3127 373.247 38.0176C374.19 36.1913 375.893 36.1137 377.815 36.5268C378.76 36.6759 379.602 36.4367 380.384 35.9957C381.778 35.8745 383.135 36.0609 384.51 36.2659C385.317 36.387 386.033 35.9832 385.999 35.1167C385.968 34.3527 385.259 34.3744 384.66 34.4023Z" fill="#FFEBEB"/>
</svg>
