<svg width="226" height="40" viewBox="0 0 226 40" fill="none" xmlns="http://www.w3.org/2000/svg">
<path d="M214.897 31.0241C214.754 31.0443 214.468 30.8929 214.462 30.8021C214.435 30.2772 214.761 30.1056 215.122 30.0299C215.372 29.9769 215.62 29.9996 215.719 30.3655C215.595 30.85 215.248 30.9762 214.897 31.0241ZM210.909 34.759C210.611 34.8246 210.39 34.653 210.343 34.2517C210.417 33.8959 210.632 33.694 210.914 33.7142C211.224 33.7344 211.366 34.0322 211.278 34.3703C211.236 34.5344 211.051 34.7211 210.909 34.759ZM183.628 17.5737C183.518 17.5233 183.48 17.2381 183.408 17.0589C183.484 16.7031 183.691 16.534 183.964 16.6627C184.075 16.7157 184.185 16.9984 184.17 17.1624C184.138 17.5157 183.903 17.6999 183.628 17.5737ZM225.216 28.4224C224.405 28.4754 223.596 28.5687 222.786 28.647C221.664 28.2407 220.541 27.8344 219.418 27.4306C218.328 28.3467 217.955 29.78 217.532 31.1781C216.643 30.3529 216.65 28.7504 215.507 28.0514C214.768 27.5972 215.519 26.6105 215.419 25.8686C214.874 25.7273 214.277 25.7853 213.814 25.3058C211.315 26.237 208.869 25.5001 206.062 24.8894C208.772 23.7539 211.107 22.3912 213.797 23.2542C214.525 22.1539 214.13 21.8637 213.141 21.6265C212.047 21.3616 210.733 22.5527 209.845 20.9401C207.827 22.3785 205.783 21.8713 203.686 21.2101C203.72 19.5269 204.969 19.6329 205.603 18.9415C206.605 17.8488 207.038 19.2241 207.717 19.5345C208.4 19.8474 208.984 20.5793 209.818 20.2689C210.598 18.9768 211.752 20.1704 212.649 19.6531C212.769 18.6261 212.721 17.7352 211.576 17.7201C211.31 18.1491 211.141 18.8582 210.578 18.6437C209.966 18.409 209.912 17.6393 209.833 16.9681C209.115 16.4684 209.462 15.5902 209.322 14.8887C208.752 14.8458 208.184 14.808 207.615 14.7676C207.562 15.3101 207.509 15.8476 207.394 17.0287C206.581 15.0225 205.37 15.0048 204.29 15.3253C203.161 15.6559 202.327 15.184 201.435 14.6111C200.328 14.8685 199.212 14.8786 198.098 14.7348C197.467 14.6515 196.966 14.1922 197.143 13.4251C197.339 12.5671 197.841 13.2812 198.233 13.314C199.324 13.4049 200.44 13.1298 201.488 13.7228C202.557 12.4939 203.729 11.9513 205.064 13.097C205.816 13.743 206.45 13.1374 207.133 12.9733C208.84 13.6926 210.444 11.6283 212.182 12.6705C212.219 12.6882 212.532 12.2138 212.608 11.9261C212.694 11.598 212.564 11.2094 212.268 11.1387C211.72 11.0075 211.159 10.9621 210.6 10.9142C203.59 10.2984 196.581 9.68519 189.57 9.07702C186.318 9.60948 183.128 9.16534 179.965 8.24173C177.492 8.92813 177.492 8.92813 175.579 7.91619C177.159 7.11371 178.593 7.62346 180.01 7.74459C183.223 7.3156 186.37 8.26444 189.555 8.42595C190.395 7.72189 191.362 7.75217 192.267 7.95405C195.305 8.63288 198.393 7.72946 201.421 8.43352C204.006 8.77167 206.588 8.74896 209.193 8.3452C206.631 7.60328 204.239 5.83681 201.45 6.72005C200.161 6.65443 198.903 6.40713 197.627 6.13459C195.564 5.69802 193.445 5.33968 191.336 5.96046C190.918 6.21029 190.52 6.05888 190.127 5.857C188.112 4.51448 185.813 4.95357 183.732 4.9031C180.439 4.82235 177.213 4.10062 173.94 3.94164C172.74 3.88612 171.818 4.31764 170.764 4.54224C169.876 4.7315 168.926 3.34356 167.786 3.41927C165.54 3.57573 163.349 2.73034 161.129 2.80353C157.856 2.91456 154.648 2.70258 151.382 2.13731C147.101 1.39287 142.703 2.0717 138.384 1.33231C138.199 1.2995 137.999 1.28183 137.818 1.32221C134.119 2.17769 130.469 0.789745 126.786 0.999198C123.899 1.16575 121.047 0.368314 118.114 0.825073C116.725 1.0421 115.085 1.43324 113.849 1.12285C109.611 0.0553953 105.358 0.63833 101.144 0.560099C97.5545 0.494488 93.9311 0.608045 90.3257 0.678703C80.897 0.865443 71.4665 0.923482 62.0378 1.18088C54.6185 1.38024 47.2046 1.77391 39.7889 2.1272C31.5159 2.51835 23.2447 2.99781 14.9627 3.18455C11.803 3.25269 8.49236 3.14922 6.1253 6.50047C5.90603 6.81086 5.46569 6.90675 5.1242 7.08845C4.16084 7.59315 3.88226 8.41582 3.44371 9.6473C2.63313 11.926 2.41924 14.3032 1.90701 16.5921C1.05149 20.4001 0.0162384 24.198 6.19737e-05 28.2457C-0.0107221 30.7768 1.28154 32.4348 2.40127 34.1911C3.34126 35.6649 4.44481 34.2769 5.49085 34.1129C6.89095 33.8908 8.27847 33.7697 8.92551 35.9324C9.26699 37.0755 9.8637 38.1051 11.1326 38.2414C12.4249 38.3852 13.6668 38.794 15.0076 38.8647C20.0778 39.1272 25.1444 39.1196 30.2147 39.218C33.4642 39.2811 36.7173 39.1171 39.9633 39.1499C43.3979 39.1852 46.8631 39.5562 50.3176 39.0338C51.4912 38.8571 52.8033 39.7025 53.9248 39.4073C56.3422 38.7663 58.7308 38.9455 61.1518 38.9505C66.4359 38.9581 71.7235 38.8546 77.0058 38.6906C79.2381 38.6225 81.447 38.5392 83.69 38.736C85.8091 38.9228 87.9479 37.0781 90.1208 38.6881C90.2484 38.784 90.5216 38.7284 90.669 38.6225C91.6306 37.9386 92.6658 38.3499 93.6651 38.2364C96.805 37.8805 100.047 39.4477 103.092 37.5323C103.277 37.4162 103.371 37.5702 103.554 37.6257C105.849 38.355 108.171 38.2995 110.502 37.9033C110.35 37.5096 110.127 37.1285 110.069 36.7172C110.031 36.4598 110.24 36.1494 110.337 35.8642C110.571 36.0005 110.932 36.0636 111.016 36.2806C111.293 36.9696 111.466 37.7165 111.678 38.4408C112.483 38.36 113.184 37.8225 114.122 38.2566C115.625 38.948 116.843 38.3474 117.104 35.8491C118.044 38.0749 118.044 38.0421 120.005 38.0698C120.844 38.0824 121.744 38.5341 122.505 38.2919C123.348 38.0219 124.16 37.8604 124.98 38.0092C126.06 38.2111 126.759 37.719 127.26 36.644C127.577 37.6307 128.021 38.4534 129.02 38.4887C129.2 38.4963 129.385 38.3827 129.563 38.3196C131.069 37.7771 132.776 37.8982 133.934 36.2377C134.439 35.5135 135.068 35.5589 135.568 36.3715C136.396 37.719 137.212 39.0616 138.576 37.0352C138.724 36.8181 138.972 36.7652 139.288 37.0503C140.147 37.82 140.999 37.8906 141.61 36.5784C141.783 36.2049 142.086 36.1519 142.178 36.5204C142.66 38.4181 143.47 36.3967 144.067 36.7778C144.917 37.3178 145.818 37.6131 146.785 37.5702C147.437 37.5399 148.098 37.6711 148.704 37.1992C149.411 36.6465 148.772 35.5311 149.373 34.8952C150.261 37.4213 150.298 37.5273 152.117 36.5784C152.991 36.1242 153.471 36.3437 154.317 36.75C155.563 37.3405 157.085 38.1531 158.46 36.8308C158.755 36.5456 159.08 36.0687 159.396 36.3816C160.831 37.8149 162.385 37.015 163.902 36.8383C165.369 36.6718 166.889 35.4252 168.245 37.2118C168.293 37.2749 168.471 37.3001 168.511 37.2522C169.495 36.0586 170.468 34.8624 171.553 37.1311C171.571 37.1664 171.773 37.1513 171.816 37.0856C172.955 35.4327 174.003 36.0182 175.11 37.1815C175.342 37.4213 175.804 37.2143 176.165 36.9822C177.436 36.1721 178.894 36.8232 180.274 36.1747C181.356 35.6674 182.675 37.2825 183.962 36.3084C185.501 37.6661 187.039 36.8308 188.538 36.2277C189.126 35.9904 189.706 35.9475 190.17 36.2176C192.018 37.2875 193.966 36.4825 195.858 36.7223C197.771 36.962 199.956 37.2118 201.622 36.3437C203.522 35.3545 205.745 38.196 207.248 35.3217C207.277 35.2611 207.796 35.4529 207.999 35.6573C209.389 37.0528 211.254 35.6624 212.669 36.8358C213.558 35.3545 214.931 36.5229 215.992 35.9652C216.542 35.675 217.063 35.3823 216.527 34.5167C215.253 34.4738 213.979 35.0265 212.692 34.547C213.486 33.3761 213.486 33.3761 216.596 33.7849C217.239 33.7041 217.888 33.6663 218.524 33.5376C219.22 33.3963 219.407 32.8487 219.188 32.0739C218.97 31.8367 218.753 31.5995 218.533 31.3598C219.085 29.8759 220.083 29.8128 221.208 30.1485C221.761 30.2696 222.254 30.0753 222.712 29.717C223.528 29.6185 224.322 29.7699 225.128 29.9365C225.6 30.0349 226.019 29.7069 225.999 29.0028C225.981 28.382 225.566 28.3997 225.216 28.4224Z" fill="#F0FFFC"/>
</svg>
