<svg width="25" height="23" viewBox="0 0 25 23" fill="none" xmlns="http://www.w3.org/2000/svg">
<path d="M23.2212 7.8208C23.1767 7.77627 23.1314 7.73281 23.0858 7.68984V6.28257C23.0858 4.8832 21.9473 3.74473 20.5479 3.74473H16.0963V2.46934C16.0963 1.10772 14.9886 0 13.627 0H9.45889C8.09727 0 6.98955 1.10772 6.98955 2.46934V3.74473H2.53784C1.13848 3.74473 0 4.8832 0 6.28257V17.579C0 18.9784 1.13848 20.1168 2.53784 20.1168H7.83647C8.03872 20.1168 8.20269 19.9529 8.20269 19.7506C8.20269 19.5484 8.03872 19.3844 7.83647 19.3844H2.53784C1.54229 19.3844 0.732373 18.5745 0.732373 17.579V10.1913C1.44946 11.2549 2.62905 11.9821 3.98037 12.0823V13.4156C3.98037 14.1771 4.5999 14.7966 5.36138 14.7966C6.1229 14.7966 6.74243 14.1771 6.74243 13.4156V12.0942H12.862C12.862 12.1001 12.8618 12.1059 12.8618 12.1118C12.8618 13.3588 13.2358 14.5482 13.93 15.5525L13.1526 16.33C12.8811 16.2532 12.5769 16.321 12.3637 16.5343L9.37739 19.5206C8.78628 20.1117 8.78628 21.0735 9.37739 21.6646C9.96987 22.2571 10.9289 22.2572 11.5214 21.6646L14.5077 18.6784C14.721 18.4651 14.7889 18.1609 14.7121 17.8895L15.4902 17.1113C17.548 18.5286 20.2909 18.5331 22.3535 17.1228V17.579C22.3535 18.5746 21.5436 19.3845 20.548 19.3845H14.7636C14.5614 19.3845 14.3974 19.5484 14.3974 19.7507C14.3974 19.9529 14.5614 20.1169 14.7636 20.1169H20.5479C21.9473 20.1169 23.0858 18.9784 23.0858 17.5791V16.5338C23.1314 16.4909 23.1767 16.4475 23.2212 16.4029C25.5928 14.0313 25.5931 10.1926 23.2212 7.8208ZM7.72187 2.46934C7.72187 1.51157 8.50107 0.732373 9.45884 0.732373H13.627C14.5847 0.732373 15.3639 1.51157 15.3639 2.46934V3.74473H14.5827V2.46934C14.5827 1.94233 14.154 1.51357 13.627 1.51357H9.45884C8.93184 1.51357 8.50308 1.94233 8.50308 2.46934V3.74473H7.72187V2.46934ZM9.23545 3.74473V2.46934C9.23545 2.34619 9.33564 2.246 9.45884 2.246H13.627C13.7501 2.246 13.8503 2.34619 13.8503 2.46934V3.74473H9.23545ZM6.01006 12.29H4.71279V11.0572C4.71279 10.6995 5.00376 10.4085 5.36143 10.4085C5.71909 10.4085 6.01006 10.6995 6.01006 11.0572V12.29ZM5.36143 14.0643C5.00376 14.0643 4.71279 13.7733 4.71279 13.4156V13.0224H6.01006V13.4156C6.01006 13.7733 5.71909 14.0643 5.36143 14.0643ZM6.74243 11.3619V11.0572C6.74243 10.2957 6.1229 9.67617 5.36138 9.67617C4.5999 9.67617 3.98037 10.2957 3.98037 11.0572V11.3468C2.16235 11.1839 0.732373 9.65264 0.732373 7.79297V6.28257C0.732373 5.28701 1.54229 4.4771 2.53784 4.4771H20.5479C21.5435 4.4771 22.3534 5.28701 22.3534 6.28257V7.09951C20.0377 5.51079 16.7758 5.68408 14.6392 7.82075C13.6717 8.78823 13.0711 10.0249 12.9074 11.3619H6.74243V11.3619ZM11.0035 21.1468C10.6973 21.4531 10.2015 21.4531 9.89522 21.1468C9.74717 20.9988 9.66567 20.802 9.66567 20.5927C9.66567 20.3834 9.74717 20.1865 9.89522 20.0385L11.964 17.9697L13.0723 19.078L11.0035 21.1468ZM13.9898 18.1605L13.5902 18.5602L12.4819 17.4519L12.8815 17.0522C12.8956 17.0382 12.914 17.0312 12.9324 17.0312C12.9508 17.0312 12.9692 17.0382 12.9832 17.0522C12.9833 17.0522 12.9833 17.0523 12.9834 17.0524L13.9898 18.0587C14.0178 18.0868 14.0178 18.1325 13.9898 18.1605ZM14.2663 17.2995L13.7425 16.7757L14.3855 16.1328C14.4671 16.2249 14.5515 16.3151 14.6392 16.4028C14.7271 16.4907 14.8174 16.575 14.9093 16.6564L14.2663 17.2995ZM15.1571 15.885C14.1492 14.8771 13.5942 13.5371 13.5942 12.1118C13.5942 10.6865 14.1492 9.34648 15.1571 8.33867C17.2423 6.25337 20.6178 6.25308 22.7034 8.33867C24.7887 10.4239 24.789 13.7994 22.7034 15.885C20.618 17.9703 17.2426 17.9706 15.1571 15.885Z" fill="#2B2E2D"/>
<path d="M22.9477 12.6147C22.7501 12.5717 22.555 12.697 22.5121 12.8947C22.3631 13.58 22.0209 14.2057 21.5224 14.704C20.0898 16.1367 17.7709 16.1368 16.3381 14.704C14.9087 13.2747 14.9087 10.949 16.3381 9.51967C17.7707 8.08701 20.0896 8.08686 21.5224 9.51967C22.0203 10.0176 22.3624 10.6426 22.5117 11.3271C22.5548 11.5247 22.7499 11.6501 22.9475 11.6069C23.1451 11.5638 23.2703 11.3687 23.2273 11.1711C23.0481 10.3492 22.6376 9.59912 22.0403 9.0018C20.3214 7.2829 17.5393 7.28271 15.8202 9.0018C14.1053 10.7167 14.1053 13.507 15.8202 15.2219C17.5351 16.9368 20.3254 16.9369 22.0403 15.2219C22.6382 14.624 23.0488 13.8731 23.2277 13.0503C23.2707 12.8527 23.1453 12.6577 22.9477 12.6147Z" fill="#2B2E2D"/>
</svg>
