<svg width="895" height="896" viewBox="0 0 895 896" fill="none" xmlns="http://www.w3.org/2000/svg">
<path d="M859.309 274.401C836.873 220.853 804.233 172.183 763.209 131.101C722.307 89.9477 673.721 57.2285 620.209 34.8009C565.39 11.7141 506.491 -0.120235 447.009 0.000920932H445.009C384.509 0.300921 326.009 12.3009 270.909 35.9009C217.856 58.5584 169.726 91.3358 129.209 132.401C88.5819 173.39 56.3161 221.891 34.2089 275.201C11.2604 330.637 -0.367731 390.104 0.00886314 450.101C0.308863 519.501 16.9089 588.401 47.9089 650.001V802.001C47.9089 827.401 68.5089 848.001 93.8089 848.001H245.609C307.496 879.229 375.79 895.661 445.109 896.001H447.209C507.009 896.001 564.909 884.401 619.509 861.701C672.75 839.541 721.155 807.203 762.009 766.501C803.209 725.601 835.609 677.801 858.309 624.501C881.809 569.301 893.809 510.601 894.109 450.001C894.309 389.101 882.509 330.001 859.309 274.401ZM247.409 496.001C221.009 496.001 199.509 474.501 199.509 448.001C199.509 421.501 221.009 400.001 247.409 400.001C273.809 400.001 295.309 421.501 295.309 448.001C295.309 474.501 273.909 496.001 247.409 496.001ZM447.009 496.001C420.609 496.001 399.109 474.501 399.109 448.001C399.109 421.501 420.609 400.001 447.009 400.001C473.409 400.001 494.909 421.501 494.909 448.001C494.909 474.501 473.409 496.001 447.009 496.001ZM646.609 496.001C620.209 496.001 598.709 474.501 598.709 448.001C598.709 421.501 620.209 400.001 646.609 400.001C673.009 400.001 694.509 421.501 694.509 448.001C694.509 474.501 673.009 496.001 646.609 496.001Z" fill="#2B2E2D"/>
</svg>
