<svg width="18" height="18" viewBox="0 0 18 18" fill="none" xmlns="http://www.w3.org/2000/svg">
<path d="M2.25 11.25C1.0095 11.25 0 10.2405 0 9C0 7.7595 1.0095 6.75 2.25 6.75C3.4905 6.75 4.5 7.7595 4.5 9C4.5 10.2405 3.4905 11.25 2.25 11.25ZM2.25 7.5C1.42275 7.5 0.75 8.17275 0.75 9C0.75 9.82725 1.42275 10.5 2.25 10.5C3.07725 10.5 3.75 9.82725 3.75 9C3.75 8.17275 3.07725 7.5 2.25 7.5Z" fill="#2B2E2D"/>
<path d="M9 11.25C7.7595 11.25 6.75 10.2405 6.75 9C6.75 7.7595 7.7595 6.75 9 6.75C10.2405 6.75 11.25 7.7595 11.25 9C11.25 10.2405 10.2405 11.25 9 11.25ZM9 7.5C8.17275 7.5 7.5 8.17275 7.5 9C7.5 9.82725 8.17275 10.5 9 10.5C9.82725 10.5 10.5 9.82725 10.5 9C10.5 8.17275 9.82725 7.5 9 7.5Z" fill="#2B2E2D"/>
<path d="M15.75 11.25C14.5095 11.25 13.5 10.2405 13.5 9C13.5 7.7595 14.5095 6.75 15.75 6.75C16.9905 6.75 18 7.7595 18 9C18 10.2405 16.9905 11.25 15.75 11.25ZM15.75 7.5C14.9227 7.5 14.25 8.17275 14.25 9C14.25 9.82725 14.9227 10.5 15.75 10.5C16.5773 10.5 17.25 9.82725 17.25 9C17.25 8.17275 16.5773 7.5 15.75 7.5Z" fill="#2B2E2D"/>
<path d="M2.25 4.5C1.0095 4.5 0 3.4905 0 2.25C0 1.0095 1.0095 0 2.25 0C3.4905 0 4.5 1.0095 4.5 2.25C4.5 3.4905 3.4905 4.5 2.25 4.5ZM2.25 0.75C1.42275 0.75 0.75 1.42275 0.75 2.25C0.75 3.07725 1.42275 3.75 2.25 3.75C3.07725 3.75 3.75 3.07725 3.75 2.25C3.75 1.42275 3.07725 0.75 2.25 0.75Z" fill="#2B2E2D"/>
<path d="M9 4.5C7.7595 4.5 6.75 3.4905 6.75 2.25C6.75 1.0095 7.7595 0 9 0C10.2405 0 11.25 1.0095 11.25 2.25C11.25 3.4905 10.2405 4.5 9 4.5ZM9 0.75C8.17275 0.75 7.5 1.42275 7.5 2.25C7.5 3.07725 8.17275 3.75 9 3.75C9.82725 3.75 10.5 3.07725 10.5 2.25C10.5 1.42275 9.82725 0.75 9 0.75Z" fill="#2B2E2D"/>
<path d="M15.75 4.5C14.5095 4.5 13.5 3.4905 13.5 2.25C13.5 1.0095 14.5095 0 15.75 0C16.9905 0 18 1.0095 18 2.25C18 3.4905 16.9905 4.5 15.75 4.5ZM15.75 0.75C14.9227 0.75 14.25 1.42275 14.25 2.25C14.25 3.07725 14.9227 3.75 15.75 3.75C16.5773 3.75 17.25 3.07725 17.25 2.25C17.25 1.42275 16.5773 0.75 15.75 0.75Z" fill="#2B2E2D"/>
<path d="M2.25 18C1.0095 18 0 16.9905 0 15.75C0 14.5095 1.0095 13.5 2.25 13.5C3.4905 13.5 4.5 14.5095 4.5 15.75C4.5 16.9905 3.4905 18 2.25 18ZM2.25 14.25C1.42275 14.25 0.75 14.9227 0.75 15.75C0.75 16.5773 1.42275 17.25 2.25 17.25C3.07725 17.25 3.75 16.5773 3.75 15.75C3.75 14.9227 3.07725 14.25 2.25 14.25Z" fill="#2B2E2D"/>
<path d="M9 18C7.7595 18 6.75 16.9905 6.75 15.75C6.75 14.5095 7.7595 13.5 9 13.5C10.2405 13.5 11.25 14.5095 11.25 15.75C11.25 16.9905 10.2405 18 9 18ZM9 14.25C8.17275 14.25 7.5 14.9227 7.5 15.75C7.5 16.5773 8.17275 17.25 9 17.25C9.82725 17.25 10.5 16.5773 10.5 15.75C10.5 14.9227 9.82725 14.25 9 14.25Z" fill="#2B2E2D"/>
<path d="M15.75 18C14.5095 18 13.5 16.9905 13.5 15.75C13.5 14.5095 14.5095 13.5 15.75 13.5C16.9905 13.5 18 14.5095 18 15.75C18 16.9905 16.9905 18 15.75 18ZM15.75 14.25C14.9227 14.25 14.25 14.9227 14.25 15.75C14.25 16.5773 14.9227 17.25 15.75 17.25C16.5773 17.25 17.25 16.5773 17.25 15.75C17.25 14.9227 16.5773 14.25 15.75 14.25Z" fill="#2B2E2D"/>
</svg>
