<svg width="512" height="512" viewBox="0 0 512 512" fill="none" xmlns="http://www.w3.org/2000/svg">
<path d="M282.02 177.433L182 142.132V210C182 218.284 188.716 225 197 225H397C405.284 225 412 218.284 412 210V142.132L311.977 177.435C307.156 179.137 302.116 180 297 180C291.884 180 286.844 179.137 282.02 177.433Z" fill="#607D8B"/>
<path d="M122.008 89.145L292.008 149.145C293.623 149.715 295.312 150 297 150C298.688 150 300.377 149.715 301.992 149.145L452 96.201V155C452 163.284 458.716 170 467 170C475.284 170 482 163.284 482 155V75C482 68.641 477.989 62.972 471.992 60.855L301.992 0.855002C298.762 -0.285998 295.238 -0.285998 292.008 0.855002L122.008 60.855C116.011 62.972 112 68.641 112 75C112 81.359 116.011 87.028 122.008 89.145V89.145Z" fill="#607D8B"/>
<path d="M456.749 314.252L400.012 388.447C388.659 403.292 371.038 412 352.35 412H247C238.716 412 232 405.284 232 397C232 388.716 238.716 382 247 382H338.309C357.934 382 374.369 365.939 373.994 346.317C373.63 327.302 358.102 312 339 312H234C203.853 283.013 157.331 279.621 123.298 303.93L112 312V482H212H232H372.864C403.488 482 432.01 466.428 448.57 440.668L507.109 349.607C510.302 344.64 511.999 338.861 511.999 332.956C512 303.51 474.635 290.861 456.749 314.252V314.252Z" fill="#607D8B"/>
<path d="M67 282H15C6.716 282 0 288.716 0 297V497C0 505.284 6.716 512 15 512H67C75.284 512 82 505.284 82 497V297C82 288.716 75.284 282 67 282Z" fill="#607D8B"/>
</svg>
