<svg width="82" height="82" viewBox="0 0 82 82" fill="none" xmlns="http://www.w3.org/2000/svg">
<g filter="url(#filter0_d)">
<circle cx="41" cy="37" r="37" fill="#6CBBB3"/>
</g>
<circle cx="41" cy="37" r="26" fill="#17485B"/>
<path d="M38.6251 37.8465C37.492 38.9903 36.3589 41.1755 34.6593 41.7693C34.6593 41.7783 34.6593 41.7845 34.6593 41.7936C34.6593 41.7908 34.6683 41.7845 34.6598 41.7817C34.6502 41.7851 34.6593 41.7908 34.6593 41.7936C34.6593 41.7845 34.6593 41.7783 34.6593 41.7693C32.9596 41.0645 31.4362 38.1178 31.0526 37.332C28.8748 37.7297 26.2086 38.6827 24.02 40.9166C23.9277 42.8763 24.1396 45.4898 24.9786 46.6093C25.7367 47.6178 27.0386 49.5355 32.8877 49.9038C32.8877 49.9038 35.0961 50.1168 37.134 49.9083C37.6206 49.8789 38.0586 49.8358 38.6251 49.7865V37.8465Z" fill="#F9F9F9"/>
<path d="M39.5004 35.9989V50.0001H57.9931V35.9989H39.5004ZM44.7885 49.0245H41.0572V43.8456H44.7885V49.0245ZM50.6121 49.0245H46.882V38.6679H50.6121V49.0245ZM56.3977 49.0245H52.6659V40.3851H56.3977V49.0245Z" fill="#F9F9F9"/>
<path d="M40.9354 30.4501C40.8776 30.372 40.7932 30.3232 40.6974 30.2909C40.6968 30.2926 40.6963 30.2938 40.6957 30.2955C40.779 29.9963 40.8028 29.6893 40.7711 29.4649C40.7592 29.3828 40.8328 29.2077 40.9087 28.9879C40.9915 28.878 41.0402 28.6819 41.0526 28.3811C41.0611 28.2927 41.0606 28.2043 41.0515 28.1171C40.9847 25.2821 38.2992 23 34.9889 23C31.6366 23 28.9205 25.3387 28.9205 28.2247C28.9205 28.3205 28.9222 28.4015 28.9268 28.4763L28.9205 28.4876C28.9205 28.4876 28.9234 28.4984 28.929 28.5199C28.9443 28.7573 28.9817 28.8814 29.0429 28.9188C29.1523 29.2881 29.1324 29.8422 29.2072 30.3221C29.1432 30.3544 29.0871 30.394 29.044 30.4513C28.8582 30.7034 28.9375 31.2518 28.9375 31.6325C28.9375 32.3974 29.3993 33.016 29.972 33.0268C30.6955 35.7967 32.6666 37.787 34.99 37.787C37.314 37.787 39.2844 35.7967 40.0079 33.0268C40.5807 33.0155 41.043 32.3957 41.043 31.6325C41.0419 31.2507 41.1206 30.7017 40.9354 30.4501Z" fill="#F9F9F9"/>
<defs>
<filter id="filter0_d" x="0" y="0" width="82" height="82" filterUnits="userSpaceOnUse" color-interpolation-filters="sRGB">
<feFlood flood-opacity="0" result="BackgroundImageFix"/>
<feColorMatrix in="SourceAlpha" type="matrix" values="0 0 0 0 0 0 0 0 0 0 0 0 0 0 0 0 0 0 127 0" result="hardAlpha"/>
<feOffset dy="4"/>
<feGaussianBlur stdDeviation="2"/>
<feComposite in2="hardAlpha" operator="out"/>
<feColorMatrix type="matrix" values="0 0 0 0 0 0 0 0 0 0 0 0 0 0 0 0 0 0 0.25 0"/>
<feBlend mode="normal" in2="BackgroundImageFix" result="effect1_dropShadow"/>
<feBlend mode="normal" in="SourceGraphic" in2="effect1_dropShadow" result="shape"/>
</filter>
</defs>
</svg>
