<svg width="82" height="82" viewBox="0 0 82 82" fill="none" xmlns="http://www.w3.org/2000/svg">
<g filter="url(#filter0_d)">
<circle cx="41" cy="37" r="37" fill="#6CBBB3"/>
</g>
<circle cx="41" cy="37" r="26" fill="#17485B"/>
<path d="M29.4865 44.1466C29.488 42.6625 30.0643 41.2397 31.089 40.1903C32.1138 39.1409 33.5032 38.5507 34.9524 38.5492H36.6838C36.864 38.5492 37.0369 38.6225 37.1643 38.753C37.2917 38.8835 37.3633 39.0605 37.3633 39.2451C37.3633 39.4296 37.2917 39.6066 37.1643 39.7371C37.0369 39.8676 36.864 39.9409 36.6838 39.9409H34.9524C33.8637 39.9424 32.8199 40.3859 32.05 41.1743C31.2801 41.9627 30.847 43.0316 30.8455 44.1466V48.9562C30.8455 49.1408 30.7739 49.3178 30.6465 49.4483C30.5191 49.5788 30.3462 49.6521 30.166 49.6521C29.9858 49.6521 29.813 49.5788 29.6855 49.4483C29.5581 49.3178 29.4865 49.1408 29.4865 48.9562V44.1466ZM51.1735 44.1466V48.9562C51.1735 49.1408 51.2451 49.3178 51.3725 49.4483C51.5 49.5788 51.6728 49.6521 51.853 49.6521C52.0332 49.6521 52.2061 49.5788 52.3335 49.4483C52.4609 49.3178 52.5325 49.1408 52.5325 48.9562V44.1466C52.5311 42.6625 51.9547 41.2397 50.93 40.1903C49.9052 39.1409 48.5158 38.5507 47.0666 38.5492H45.3488C45.1686 38.5492 44.9958 38.6225 44.8683 38.753C44.7409 38.8835 44.6693 39.0605 44.6693 39.2451C44.6693 39.4296 44.7409 39.6066 44.8683 39.7371C44.9958 39.8676 45.1686 39.9409 45.3488 39.9409H47.0802C48.1666 39.946 49.2069 40.3912 49.9738 41.1792C50.7408 41.9672 51.1721 43.034 51.1735 44.1466ZM44.9058 36.9098V35.1452C45.6827 34.5589 46.3239 33.8045 46.7839 32.9357C47.2438 32.0669 47.5112 31.1049 47.567 30.1183C47.6228 29.1317 47.4656 28.1446 47.1067 27.2272C46.7477 26.3098 46.1958 25.4847 45.4901 24.8105C44.832 24.1776 44.0528 23.6916 43.2018 23.383C42.3508 23.0745 41.4465 22.9502 40.5461 23.018C39.2054 23.1151 37.926 23.631 36.8806 24.496C35.8352 25.3611 35.074 26.5337 34.6998 27.8556C34.3256 29.1776 34.3564 30.5853 34.7879 31.8888C35.2195 33.1923 36.0311 34.3288 37.1132 35.1452V36.9015C37.1132 37.086 37.1848 37.263 37.3123 37.3935C37.4397 37.524 37.6125 37.5973 37.7928 37.5973C37.973 37.5973 38.1458 37.524 38.2732 37.3935C38.4007 37.263 38.4723 37.086 38.4723 36.9015V35.0004C38.4715 34.8216 38.4291 34.6456 38.3488 34.4868C38.2685 34.3281 38.1524 34.1912 38.0102 34.0875C37.1326 33.4529 36.468 32.556 36.1074 31.5196C35.7468 30.4832 35.7079 29.3581 35.996 28.2982C36.2841 27.2383 36.885 26.2955 37.7166 25.5989C38.5481 24.9023 39.5697 24.486 40.6412 24.4069C41.356 24.3521 42.0741 24.4502 42.7498 24.6951C43.4255 24.94 44.044 25.3262 44.566 25.8292C45.1327 26.3698 45.5745 27.0329 45.8595 27.7703C46.1444 28.5077 46.2652 29.3009 46.2132 30.0921C46.1611 30.8834 45.9374 31.6528 45.5585 32.3444C45.1795 33.036 44.6548 33.6324 44.0224 34.0903C43.8788 34.1923 43.7613 34.3283 43.6799 34.4867C43.5985 34.6452 43.5557 34.8214 43.5549 35.0004V36.9015C43.5549 37.086 43.6265 37.263 43.7539 37.3935C43.8814 37.524 44.0542 37.5973 44.2344 37.5973C44.4146 37.5973 44.5875 37.524 44.7149 37.3935C44.8423 37.263 44.9139 37.086 44.9139 36.9015L44.9058 36.9098ZM31.4272 30.4357C31.6074 30.4357 31.7802 30.3624 31.9077 30.2319C32.0351 30.1014 32.1067 29.9244 32.1067 29.7398C32.1067 29.5553 32.0351 29.3783 31.9077 29.2478C31.7802 29.1173 31.6074 29.044 31.4272 29.044H29.6795C29.4993 29.044 29.3265 29.1173 29.199 29.2478C29.0716 29.3783 29 29.5553 29 29.7398C29 29.9244 29.0716 30.1014 29.199 30.2319C29.3265 30.3624 29.4993 30.4357 29.6795 30.4357H31.4272ZM33.308 26.3636C33.4072 26.21 33.4429 26.0224 33.4073 25.8418C33.3716 25.6613 33.2675 25.5026 33.1178 25.4006L31.487 24.3039C31.4124 24.2507 31.3282 24.2134 31.2394 24.1941C31.1505 24.1748 31.0587 24.174 30.9695 24.1917C30.8803 24.2093 30.7955 24.2451 30.72 24.297C30.6446 24.3488 30.5801 24.4156 30.5302 24.4934C30.4804 24.5712 30.4464 24.6584 30.4301 24.75C30.4138 24.8415 30.4155 24.9354 30.4353 25.0262C30.4551 25.117 30.4924 25.2029 30.5451 25.2786C30.5979 25.3544 30.6649 25.4186 30.7422 25.4674L32.373 26.564C32.5237 26.6651 32.7074 26.7007 32.8838 26.6632C33.0601 26.6256 33.2147 26.5178 33.3135 26.3636H33.308ZM30.5384 34.9754C30.6372 35.1296 30.7918 35.2373 30.9681 35.2749C31.1444 35.3125 31.3281 35.2768 31.4788 35.1758L33.1096 34.0791C33.2548 33.9756 33.3547 33.8181 33.3883 33.6403C33.4219 33.4625 33.3864 33.2782 33.2895 33.1267C33.1925 32.9752 33.0417 32.8684 32.869 32.829C32.6964 32.7896 32.5155 32.8207 32.3649 32.9157L30.7341 34.0123C30.5835 34.1135 30.4783 34.2718 30.4416 34.4524C30.4049 34.6329 30.4397 34.8211 30.5384 34.9754ZM52.3205 29.044H50.5728C50.3926 29.044 50.2198 29.1173 50.0923 29.2478C49.9649 29.3783 49.8933 29.5553 49.8933 29.7398C49.8933 29.9244 49.9649 30.1014 50.0923 30.2319C50.2198 30.3624 50.3926 30.4357 50.5728 30.4357H52.3205C52.5007 30.4357 52.6735 30.3624 52.801 30.2319C52.9284 30.1014 53 29.9244 53 29.7398C53 29.5553 52.9284 29.3783 52.801 29.2478C52.6735 29.1173 52.5007 29.044 52.3205 29.044ZM49.26 26.6781C49.3924 26.6782 49.5218 26.6385 49.6324 26.564L51.2632 25.4674C51.4139 25.3655 51.5188 25.2065 51.555 25.0254C51.5912 24.8443 51.5557 24.6558 51.4562 24.5015C51.3567 24.3473 51.2014 24.2398 51.0246 24.2027C50.8477 24.1656 50.6637 24.2021 50.513 24.3039L48.8822 25.4006C48.76 25.4827 48.6669 25.6031 48.6168 25.7437C48.5666 25.8844 48.5621 26.0378 48.604 26.1813C48.6458 26.3248 48.7317 26.4506 48.8489 26.5401C48.9661 26.6296 49.1084 26.678 49.2546 26.6781H49.26ZM48.8822 34.0791L50.513 35.1758C50.6636 35.2707 50.8445 35.3018 51.0171 35.2624C51.1898 35.223 51.3406 35.1162 51.4376 34.9647C51.5346 34.8132 51.57 34.629 51.5365 34.4511C51.5029 34.2733 51.4029 34.1159 51.2578 34.0123L49.627 32.9157C49.5524 32.8625 49.4682 32.8252 49.3793 32.8059C49.2905 32.7866 49.1987 32.7858 49.1095 32.8034C49.0203 32.8211 48.9355 32.8569 48.86 32.9087C48.7846 32.9605 48.72 33.0273 48.6702 33.1051C48.6204 33.1829 48.5864 33.2702 48.57 33.3617C48.5537 33.4532 48.5555 33.5472 48.5753 33.638C48.5951 33.7288 48.6324 33.8146 48.6851 33.8904C48.7378 33.9662 48.8049 34.0303 48.8822 34.0791ZM41 31.7105C41.1802 31.7105 41.353 31.6372 41.4805 31.5067C41.6079 31.3762 41.6795 31.1992 41.6795 31.0146V27.5577C41.6795 27.3731 41.6079 27.1961 41.4805 27.0656C41.353 26.9352 41.1802 26.8618 41 26.8618C40.8198 26.8618 40.647 26.9352 40.5195 27.0656C40.3921 27.1961 40.3205 27.3731 40.3205 27.5577V31.0146C40.3205 31.1992 40.3921 31.3762 40.5195 31.5067C40.647 31.6372 40.8198 31.7105 41 31.7105ZM38.1542 49.4155C38.0311 49.2348 37.9517 49.0269 37.9224 48.8086C37.8931 48.5904 37.9148 48.3682 37.9857 48.1602L39.2523 44.5223C38.8976 44.169 38.6539 43.7154 38.5524 43.2195C38.4508 42.7236 38.496 42.2079 38.6822 41.7384C38.8684 41.269 39.1871 40.8671 39.5976 40.5841C40.008 40.3011 40.4916 40.15 40.9864 40.15C41.4812 40.15 41.9648 40.3011 42.3752 40.5841C42.7857 40.8671 43.1044 41.269 43.2906 41.7384C43.4768 42.2079 43.522 42.7236 43.4204 43.2195C43.3189 43.7154 43.0752 44.169 42.7205 44.5223L43.9898 48.1602C44.0627 48.368 44.0856 48.5907 44.0567 48.8095C44.0278 49.0284 43.9478 49.2368 43.8236 49.4173C43.6993 49.5977 43.5345 49.7449 43.3429 49.8464C43.1514 49.9478 42.9388 50.0005 42.7232 50H39.2523C39.0372 49.9985 38.8254 49.9448 38.6345 49.8432C38.4436 49.7416 38.279 49.595 38.1542 49.4155ZM39.8612 42.702C39.8606 42.9301 39.9261 43.1532 40.0492 43.3433C40.1723 43.5334 40.3477 43.6819 40.5531 43.77C40.7585 43.8582 40.9849 43.8821 41.2035 43.8388C41.4222 43.7954 41.6235 43.6867 41.7819 43.5264C41.9404 43.3661 42.0489 43.1613 42.0939 42.9379C42.1388 42.7145 42.1182 42.4825 42.0346 42.2711C41.951 42.0596 41.8081 41.8783 41.624 41.7499C41.4398 41.6216 41.2227 41.5519 41 41.5497C40.8512 41.5482 40.7036 41.5769 40.5656 41.6341C40.4277 41.6914 40.3022 41.776 40.1963 41.8831C40.0905 41.9902 40.0064 42.1177 39.9488 42.2582C39.8913 42.3988 39.8615 42.5496 39.8612 42.702ZM40.4564 45.1903L39.2659 48.6278L41 48.6083H42.7205L41.5164 45.1903C41.1699 45.2684 40.811 45.2684 40.4646 45.1903H40.4564ZM41 34.029C41.1344 34.029 41.2658 33.9882 41.3775 33.9117C41.4893 33.8353 41.5763 33.7266 41.6278 33.5995C41.6792 33.4723 41.6927 33.3324 41.6664 33.1974C41.6402 33.0624 41.5755 32.9385 41.4805 32.8411C41.3855 32.7438 41.2644 32.6776 41.1326 32.6507C41.0008 32.6239 40.8641 32.6376 40.74 32.6903C40.6158 32.743 40.5097 32.8322 40.435 32.9466C40.3604 33.061 40.3205 33.1956 40.3205 33.3332C40.3205 33.5177 40.3921 33.6947 40.5195 33.8252C40.647 33.9557 40.8198 34.029 41 34.029Z" fill="#F9F9F9"/>
<defs>
<filter id="filter0_d" x="0" y="0" width="82" height="82" filterUnits="userSpaceOnUse" color-interpolation-filters="sRGB">
<feFlood flood-opacity="0" result="BackgroundImageFix"/>
<feColorMatrix in="SourceAlpha" type="matrix" values="0 0 0 0 0 0 0 0 0 0 0 0 0 0 0 0 0 0 127 0" result="hardAlpha"/>
<feOffset dy="4"/>
<feGaussianBlur stdDeviation="2"/>
<feComposite in2="hardAlpha" operator="out"/>
<feColorMatrix type="matrix" values="0 0 0 0 0 0 0 0 0 0 0 0 0 0 0 0 0 0 0.25 0"/>
<feBlend mode="normal" in2="BackgroundImageFix" result="effect1_dropShadow"/>
<feBlend mode="normal" in="SourceGraphic" in2="effect1_dropShadow" result="shape"/>
</filter>
</defs>
</svg>
